<?xml version="1.0" encoding="UTF-8"?>
<svg width="939px" height="130px" viewBox="0 0 939 130" version="1.1" xmlns="http://www.w3.org/2000/svg" xmlns:xlink="http://www.w3.org/1999/xlink">
    <title>Group 5</title>
    <g id="Normal-and-Plus-Logos" stroke="none" stroke-width="1" fill="none" fill-rule="evenodd">
        <g id="Group-5">
            <polygon id="Path" fill="#000000" fill-rule="nonzero" points="232.128 118.864 232.128 102.448 180.144 102.448 180.144 74.8 226.944 74.8 226.944 58.384 180.144 58.384 180.144 33.328 229.536 33.328 229.536 16.912 162 16.912 162 118.864"></polygon>
            <path d="M260.96,118.864 L260.96,81.136 C260.96,78.832 261.248,76.624 261.824,74.512 C262.4,72.4 263.336,70.528 264.632,68.896 C265.928,67.264 267.56,65.968 269.528,65.008 C271.496,64.048 273.92,63.568 276.8,63.568 C281.024,63.568 284.048,64.84 285.872,67.384 C287.696,69.928 288.608,73.36 288.608,77.68 L288.608,77.68 L288.608,118.864 L305.888,118.864 L305.888,81.424 C305.888,79.216 306.152,77.032 306.68,74.872 C307.208,72.712 308.072,70.792 309.272,69.112 C310.472,67.432 312.008,66.088 313.88,65.08 C315.752,64.072 318.032,63.568 320.72,63.568 C323.312,63.568 325.424,64 327.056,64.864 C328.688,65.728 329.984,66.904 330.944,68.392 C331.904,69.88 332.576,71.608 332.96,73.576 C333.344,75.544 333.536,77.584 333.536,79.696 L333.536,79.696 L333.536,118.864 L350.816,118.864 L350.816,77.68 C350.816,73.552 350.384,69.688 349.52,66.088 C348.656,62.488 347.24,59.344 345.272,56.656 C343.304,53.968 340.736,51.856 337.568,50.32 C334.4,48.784 330.512,48.016 325.904,48.016 C320.72,48.016 316.256,49.048 312.512,51.112 C308.768,53.176 305.648,56.416 303.152,60.832 C299.6,52.288 292.4,48.016 281.552,48.016 C275.792,48.016 271.208,49.288 267.8,51.832 C264.392,54.376 261.92,57.28 260.384,60.544 L260.384,60.544 L260.096,60.544 L260.096,49.744 L243.68,49.744 L243.68,118.864 L260.96,118.864 Z" id="Path" fill="#000000" fill-rule="nonzero"></path>
            <path d="M399.808,48.016 C404.608,48.016 409,48.856 412.984,50.536 C416.968,52.216 420.376,54.64 423.208,57.808 C426.04,60.976 428.248,64.888 429.832,69.544 C431.416,74.2 432.208,79.552 432.208,85.6 L432.208,85.6 L432.208,90.352 L379.504,90.352 L379.562219,90.834625 C380.207406,95.786875 382.204,99.658 385.552,102.448 C389.008,105.328 393.184,106.768 398.08,106.768 C402.4,106.768 406.024,105.88 408.952,104.104 C411.88,102.328 414.448,100.096 416.656,97.408 L416.656,97.408 L429.04,106.768 L428.621184,107.279277 C424.696257,112.003253 420.323862,115.384828 415.504,117.424 C410.512,119.536 405.28,120.592 399.808,120.592 C394.624,120.592 389.728,119.728 385.12,118 C380.512,116.272 376.528,113.824 373.168,110.656 C369.808,107.488 367.144,103.672 365.176,99.208 C363.208,94.744 362.224,89.776 362.224,84.304 C362.224,78.832 363.208,73.864 365.176,69.4 C367.144,64.936 369.808,61.12 373.168,57.952 C376.528,54.784 380.512,52.336 385.12,50.608 C389.728,48.88 394.624,48.016 399.808,48.016 Z M397.36,60.976 C392.176,60.976 388.072,62.464 385.048,65.44 C382.024,68.416 380.176,72.4 379.504,77.392 L379.504,77.392 L414.928,77.392 C414.832,72.304 413.248,68.296 410.176,65.368 C407.104,62.44 402.832,60.976 397.36,60.976 Z" id="Combined-Shape" fill="#000000" fill-rule="nonzero"></path>
            <path d="M461.616,118.864 L461.616,81.856 C461.616,80.896 461.832,79.456 462.264,77.536 C462.696,75.616 463.56,73.696 464.856,71.776 C466.152,69.856 468.024,68.152 470.472,66.664 C472.92,65.176 476.16,64.432 480.192,64.432 C481.536,64.432 482.904,64.552 484.296,64.792 C485.688,65.032 487.104,65.344 488.544,65.728 L488.544,65.728 L488.544,49.024 C487.488,48.736 486.456,48.496 485.448,48.304 C484.44,48.112 483.408,48.016 482.352,48.016 C477.744,48.016 473.664,49.12 470.112,51.328 C466.56,53.536 463.824,56.656 461.904,60.688 L461.904,60.688 L461.616,60.688 L461.616,49.744 L444.336,49.744 L444.336,118.864 L461.616,118.864 Z" id="Path" fill="#000000" fill-rule="nonzero"></path>
            <path d="M523.584,48.016 C528.48,48.016 532.608,48.568 535.968,49.672 C539.328,50.776 542.112,52.192 544.32,53.92 C546.528,55.648 548.232,57.64 549.432,59.896 C550.632,62.152 551.496,64.432 552.024,66.736 C552.552,69.04 552.864,71.272 552.96,73.432 C553.056,75.592 553.104,77.488 553.104,79.12 L553.104,79.12 L553.104,118.864 L537.552,118.864 L537.552,109.36 L537.12,109.36 L536.829018,109.809361 C534.379314,113.514095 531.308308,116.220308 527.616,117.928 C523.776,119.704 519.552,120.592 514.944,120.592 C511.776,120.592 508.68,120.16 505.656,119.296 C502.632,118.432 499.944,117.136 497.592,115.408 C495.24,113.68 493.344,111.52 491.904,108.928 C490.464,106.336 489.744,103.312 489.744,99.856 C489.744,96.112 490.416,92.92 491.76,90.28 C493.104,87.64 494.904,85.432 497.16,83.656 C499.416,81.88 502.032,80.464 505.008,79.408 C507.984,78.352 511.08,77.56 514.296,77.032 C517.512,76.504 520.752,76.168 524.016,76.024 C527.28,75.88 530.352,75.808 533.232,75.808 L533.232,75.808 L537.552,75.808 L537.552,73.936 L537.547641,73.5341641 C537.457547,69.4145547 535.971,66.3085 533.088,64.216 C530.112,62.056 526.32,60.976 521.712,60.976 C518.064,60.976 514.656,61.624 511.488,62.92 C508.32,64.216 505.584,65.968 503.28,68.176 L503.28,68.176 L494.208,59.104 L494.637333,58.6712099 C498.381333,54.9597366 502.726222,52.272 507.672,50.608 C512.808,48.88 518.112,48.016 523.584,48.016 Z M536.544,87.904 L532.944,87.904 L532.282314,87.9063802 C530.052893,87.9222479 527.585455,88.0174545 524.88,88.192 C521.904,88.384 519.096,88.84 516.456,89.56 C513.816,90.28 511.584,91.336 509.76,92.728 C507.936,94.12 507.024,96.064 507.024,98.56 C507.024,100.192 507.384,101.56 508.104,102.664 C508.824,103.768 509.76,104.704 510.912,105.472 C512.064,106.24 513.36,106.792 514.8,107.128 C516.24,107.464 517.68,107.632 519.12,107.632 C525.072,107.632 529.464,106.216 532.296,103.384 C535.128,100.552 536.544,96.688 536.544,91.792 L536.544,91.792 L536.544,87.904 Z" id="Combined-Shape" fill="#000000" fill-rule="nonzero"></path>
            <polygon id="Path" fill="#000000" fill-rule="nonzero" points="585.248 118.864 585.248 10 567.968 10 567.968 118.864"></polygon>
            <path d="M670.256,10 L670.256,118.864 L653.84,118.864 L653.84,108.496 L653.552,108.496 L653.281265,108.944163 C650.814898,112.937959 647.545143,115.860571 643.472,117.712 C639.248,119.632 634.688,120.592 629.792,120.592 C624.416,120.592 619.64,119.656 615.464,117.784 C611.288,115.912 607.712,113.344 604.736,110.08 C601.76,106.816 599.504,102.976 597.968,98.56 C596.432,94.144 595.664,89.392 595.664,84.304 C595.664,79.216 596.48,74.464 598.112,70.048 C599.744,65.632 602.024,61.792 604.952,58.528 C607.88,55.264 611.408,52.696 615.536,50.824 C619.664,48.952 624.176,48.016 629.072,48.016 C632.336,48.016 635.216,48.352 637.712,49.024 C640.208,49.696 642.416,50.56 644.336,51.616 C646.256,52.672 647.888,53.8 649.232,55 C650.576,56.2 651.68,57.376 652.544,58.528 L652.544,58.528 L652.976,58.528 L652.976,10 L670.256,10 Z M633.248,63.568 C630.08,63.568 627.248,64.144 624.752,65.296 C622.256,66.448 620.12,67.984 618.344,69.904 C616.568,71.824 615.224,74.032 614.312,76.528 C613.4,79.024 612.944,81.616 612.944,84.304 C612.944,86.992 613.4,89.584 614.312,92.08 C615.224,94.576 616.568,96.784 618.344,98.704 C620.12,100.624 622.256,102.16 624.752,103.312 C627.248,104.464 630.08,105.04 633.248,105.04 C636.416,105.04 639.248,104.464 641.744,103.312 C644.24,102.16 646.376,100.624 648.152,98.704 C649.928,96.784 651.272,94.576 652.184,92.08 C653.096,89.584 653.552,86.992 653.552,84.304 C653.552,81.616 653.096,79.024 652.184,76.528 C651.272,74.032 649.928,71.824 648.152,69.904 C646.376,67.984 644.24,66.448 641.744,65.296 C639.248,64.144 636.416,63.568 633.248,63.568 Z" id="Combined-Shape" fill="#000000" fill-rule="nonzero"></path>
            <path d="M729.696,16.912 L730.67296,16.9184 C735.221653,16.9781333 739.624,17.456 743.88,18.352 C748.44,19.312 752.448,20.92 755.904,23.176 C759.36,25.432 762.12,28.456 764.184,32.248 C766.248,36.04 767.28,40.768 767.28,46.432 C767.28,52.864 766.176,58.048 763.968,61.984 C761.76,65.92 758.784,68.968 755.04,71.128 C751.296,73.288 746.952,74.752 742.008,75.52 C737.064,76.288 731.904,76.672 726.528,76.672 L726.528,76.672 L713.568,76.672 L713.568,118.864 L695.424,118.864 L695.424,16.912 L729.696,16.912 Z M726.528,32.464 L713.568,32.464 L713.568,61.12 L724.512,61.12 C727.104,61.12 729.792,61.024 732.576,60.832 C735.36,60.64 737.928,60.064 740.28,59.104 C742.632,58.144 744.552,56.704 746.04,54.784 C747.528,52.864 748.272,50.176 748.272,46.72 C748.272,43.552 747.6,41.032 746.256,39.16 C744.912,37.288 743.184,35.848 741.072,34.84 C738.96,33.832 736.608,33.184 734.016,32.896 C731.424,32.608 728.928,32.464 726.528,32.464 L726.528,32.464 Z" id="Combined-Shape" fill="#007055" fill-rule="nonzero"></path>
            <polygon id="Path" fill="#007055" fill-rule="nonzero" points="794.392 118.864 794.392 10 777.112 10 777.112 118.864"></polygon>
            <path d="M834.464,120.592 C840.224,120.592 844.784,119.32 848.144,116.776 C851.504,114.232 854,111.232 855.632,107.776 L855.632,107.776 L855.92,107.776 L855.92,118.864 L872.336,118.864 L872.336,49.744 L855.056,49.744 L855.056,87.472 C855.056,89.776 854.768,91.984 854.192,94.096 C853.616,96.208 852.68,98.08 851.384,99.712 C850.088,101.344 848.456,102.64 846.488,103.6 C844.52,104.56 842.096,105.04 839.216,105.04 C836.144,105.04 833.768,104.344 832.088,102.952 C830.408,101.56 829.16,99.832 828.344,97.768 C827.528,95.704 827.024,93.496 826.832,91.144 C826.64,88.792 826.544,86.656 826.544,84.736 L826.544,84.736 L826.544,49.744 L809.264,49.744 L809.264,93.376 C809.264,96.928 809.696,100.336 810.56,103.6 C811.424,106.864 812.864,109.768 814.88,112.312 C816.896,114.856 819.512,116.872 822.728,118.36 C825.944,119.848 829.856,120.592 834.464,120.592 Z" id="Path" fill="#007055" fill-rule="nonzero"></path>
            <path d="M908.656,120.592 C912.208,120.592 915.76,120.208 919.312,119.44 C922.864,118.672 926.056,117.424 928.888,115.696 C931.72,113.968 934.024,111.688 935.8,108.856 C937.576,106.024 938.464,102.544 938.464,98.416 C938.464,93.904 937.552,90.352 935.728,87.76 C933.904,85.168 931.6,83.128 928.816,81.64 C926.032,80.152 923.032,79.048 919.816,78.328 C916.6,77.608 913.6,76.912 910.816,76.24 C908.032,75.568 905.728,74.752 903.904,73.792 C902.08,72.832 901.168,71.296 901.168,69.184 C901.168,66.592 902.272,64.72 904.48,63.568 C906.688,62.416 908.944,61.84 911.248,61.84 C916.912,61.84 921.424,64.192 924.784,68.896 L924.784,68.896 L936.304,58.528 C933.52,54.688 929.872,51.976 925.36,50.392 C920.848,48.808 916.288,48.016 911.68,48.016 C908.224,48.016 904.816,48.448 901.456,49.312 C898.096,50.176 895.12,51.52 892.528,53.344 C889.936,55.168 887.848,57.496 886.264,60.328 C884.68,63.16 883.888,66.496 883.888,70.336 C883.888,74.752 884.8,78.208 886.624,80.704 C888.448,83.2 890.752,85.144 893.536,86.536 C896.32,87.928 899.32,88.936 902.536,89.56 C905.752,90.184 908.752,90.856 911.536,91.576 C914.32,92.296 916.624,93.232 918.448,94.384 C920.272,95.536 921.184,97.312 921.184,99.712 C921.184,101.056 920.824,102.232 920.104,103.24 C919.384,104.248 918.448,105.088 917.296,105.76 C916.144,106.432 914.896,106.912 913.552,107.2 C912.208,107.488 910.912,107.632 909.664,107.632 C906.016,107.632 902.92,106.84 900.376,105.256 C897.832,103.672 895.456,101.632 893.248,99.136 L893.248,99.136 L881.728,109.936 C885.28,113.968 889.312,116.752 893.824,118.288 C898.336,119.824 903.28,120.592 908.656,120.592 Z" id="Path" fill="#007055" fill-rule="nonzero"></path>
            <g id="Group">
                <path d="M127.080029,71.8704905 L71.8704905,127.080029 C69.9647789,128.985741 67.4670386,129.938596 64.9692982,129.938596 L64.9692982,64.9692982 L129.938596,64.9692982 C129.938596,67.4670386 128.985741,69.9647789 127.080029,71.8704905 Z" id="Path-Copy-3" fill="#007055"></path>
                <path d="M71.8704905,2.85856745 L127.080029,58.0681059 C128.985741,59.9738176 129.938596,62.4715579 129.938596,64.9692982 L64.9692982,64.9692982 L64.9692982,7.10542736e-15 C67.4670386,7.10542736e-15 69.9647789,0.952855817 71.8704905,2.85856745 Z" id="Path-Copy-4" fill="#009874"></path>
                <path d="M2.85856745,58.0681059 L58.0681059,2.85856745 C59.9738176,0.952855817 62.4715579,7.10542736e-15 64.9692982,7.10542736e-15 L64.9692982,64.9692982 L7.10542736e-15,64.9692982 C7.10542736e-15,62.4715579 0.952855817,59.9738176 2.85856745,58.0681059 Z" id="Path-Copy-5" fill="#1EC79F"></path>
                <path d="M58.0681059,127.080029 L2.85856745,71.8704905 C0.952855817,69.9647789 4.61852778e-13,67.4670386 4.61852778e-13,64.9692982 L64.9692982,64.9692982 L64.9692982,129.938596 C62.4715579,129.938596 59.9738176,128.985741 58.0681059,127.080029 Z" id="Path-Copy-6" fill="#009874"></path>
            </g>
        </g>
    </g>
</svg>