<svg width="470" height="72" viewBox="0 0 470 72" fill="none" xmlns="http://www.w3.org/2000/svg">
<path d="M45.4162 70.4843V59.8558H11.7591V41.955H42.0598V31.3265H11.7591V15.1039H43.738V4.47534H0.0117188V70.4843H45.4162Z" fill="#43484C"/>
<path d="M64.0844 70.4839V46.0569C64.0844 44.5652 64.2709 43.1356 64.6438 41.7682C65.0168 40.4007 65.6228 39.1887 66.4619 38.1321C67.301 37.0754 68.3576 36.2363 69.6318 35.6148C70.906 34.9932 72.4754 34.6824 74.3401 34.6824C77.0749 34.6824 79.0328 35.506 80.2138 37.1531C81.3947 38.8002 81.9852 41.0223 81.9852 43.8193V43.8193V70.4839H93.1732V46.2433C93.1732 44.8138 93.3441 43.3997 93.6859 42.0012C94.0278 40.6027 94.5872 39.3596 95.3641 38.2719C96.1411 37.1842 97.1356 36.314 98.3476 35.6614C99.5596 35.0088 101.036 34.6824 102.776 34.6824C104.454 34.6824 105.822 34.9621 106.878 35.5215C107.935 36.0809 108.774 36.8423 109.396 37.8058C110.017 38.7692 110.452 39.888 110.701 41.1621C110.95 42.4363 111.074 43.7571 111.074 45.1246V45.1246V70.4839H122.262V43.8193C122.262 41.1466 121.982 38.6449 121.423 36.314C120.863 33.9832 119.947 31.9476 118.672 30.2073C117.398 28.4669 115.736 27.0995 113.684 26.105C111.633 25.1105 109.116 24.6133 106.133 24.6133C102.776 24.6133 99.8859 25.2815 97.4619 26.6178C95.0378 27.9541 93.0178 30.0519 91.4017 32.911C89.102 27.3792 84.4403 24.6133 77.4168 24.6133C73.6875 24.6133 70.7195 25.4368 68.513 27.084C66.3065 28.7311 64.706 30.6113 63.7115 32.7246V32.7246H63.5251V25.7321H52.8965V70.4839H64.0844Z" fill="#43484C"/>
<path fill-rule="evenodd" clip-rule="evenodd" d="M164.143 69.5516C160.911 70.919 157.523 71.6027 153.98 71.6027C150.624 71.6027 147.454 71.0433 144.471 69.9245C141.487 68.8057 138.908 67.2208 136.732 65.1697C134.557 63.1185 132.832 60.6479 131.558 57.7576C130.284 54.8674 129.646 51.6509 129.646 48.108C129.646 44.5652 130.284 41.3486 131.558 38.4584C132.832 35.5682 134.557 33.0975 136.732 31.0464C138.908 28.9952 141.487 27.4103 144.471 26.2915C147.454 25.1727 150.624 24.6133 153.98 24.6133C157.088 24.6133 159.932 25.1571 162.511 26.2449C165.091 27.3326 167.297 28.902 169.131 30.9531C170.964 33.0043 172.394 35.5371 173.419 38.5516C174.445 41.5662 174.958 45.0313 174.958 48.9471V52.0238H140.834C141.207 55.3802 142.513 57.9907 144.75 59.8554C146.988 61.72 149.692 62.6524 152.862 62.6524C155.659 62.6524 158.005 62.0774 159.901 60.9275C161.796 59.7777 163.459 58.3326 164.889 56.5922L172.907 62.6524C170.296 65.8844 167.375 68.1842 164.143 69.5516ZM140.834 43.6332H163.769C163.707 40.339 162.682 37.744 160.693 35.8482C158.704 33.9525 155.938 33.0046 152.395 33.0046C149.039 33.0046 146.381 33.968 144.424 35.8949C142.466 37.8217 141.269 40.4011 140.834 43.6332Z" fill="#43484C"/>
<path d="M193.998 70.4839V46.523C193.998 45.9015 194.137 44.9692 194.417 43.7261C194.697 42.4829 195.256 41.2398 196.095 39.9967C196.934 38.7536 198.146 37.6504 199.731 36.687C201.316 35.7236 203.414 35.2418 206.025 35.2418C206.895 35.2418 207.78 35.3195 208.682 35.4749C209.583 35.6303 210.5 35.8323 211.432 36.0809V36.0809V25.2659C210.748 25.0794 210.08 24.9241 209.428 24.7997C208.775 24.6754 208.107 24.6133 207.423 24.6133C204.44 24.6133 201.798 25.3281 199.498 26.7576C197.199 28.1872 195.427 30.2073 194.184 32.8178V32.8178H193.998V25.7321H182.81V70.4839H193.998Z" fill="#43484C"/>
<path fill-rule="evenodd" clip-rule="evenodd" d="M236.729 69.8779C234.243 71.0278 231.508 71.6027 228.525 71.6027C226.474 71.6027 224.469 71.323 222.511 70.7636C220.553 70.2042 218.813 69.3651 217.29 68.2463C215.767 67.1275 214.54 65.7291 213.607 64.0509C212.675 62.3727 212.209 60.4148 212.209 58.1772C212.209 55.7531 212.644 53.6864 213.514 51.9772C214.384 50.2679 215.55 48.8383 217.01 47.6885C218.471 46.5386 220.165 45.6218 222.092 44.9381C224.019 44.2544 226.023 43.7416 228.105 43.3997C230.187 43.0579 232.285 42.8403 234.398 42.7471C236.512 42.6539 238.501 42.6073 240.365 42.6073H243.162V41.3952C243.162 38.5982 242.199 36.5005 240.272 35.102C238.345 33.7035 235.89 33.0043 232.907 33.0043C230.545 33.0043 228.338 33.4238 226.287 34.2629C224.236 35.102 222.465 36.2363 220.973 37.6659L215.099 31.7922C217.585 29.2439 220.491 27.4103 223.816 26.2915C227.142 25.1727 230.576 24.6133 234.119 24.6133C237.289 24.6133 239.961 24.9707 242.137 25.6855C244.312 26.4002 246.115 27.317 247.544 28.4358C248.974 29.5546 250.077 30.8444 250.854 32.305C251.631 33.7657 252.19 35.2418 252.532 36.7336C252.874 38.2253 253.076 39.6704 253.138 41.0689C253.2 42.4674 253.232 43.695 253.232 44.7516V70.4839H243.162V64.3306H242.883C241.267 66.8789 239.215 68.728 236.729 69.8779ZM228.431 62.8856C229.363 63.1031 230.296 63.2119 231.228 63.2119C235.082 63.2119 237.925 62.2951 239.759 60.4615C241.592 58.6279 242.509 56.1262 242.509 52.9563V50.439H240.178C238.625 50.439 236.884 50.5011 234.957 50.6254C233.031 50.7498 231.212 51.045 229.503 51.5112C227.794 51.9773 226.349 52.661 225.168 53.5623C223.987 54.4635 223.396 55.7222 223.396 57.3382C223.396 58.3949 223.63 59.2806 224.096 59.9954C224.562 60.7101 225.168 61.3162 225.914 61.8134C226.66 62.3106 227.499 62.668 228.431 62.8856Z" fill="#43484C"/>
<path d="M274.045 70.4842V0H262.857V70.4842H274.045Z" fill="#43484C"/>
<path fill-rule="evenodd" clip-rule="evenodd" d="M311.741 69.7383C309.007 70.9814 306.054 71.603 302.884 71.603C299.404 71.603 296.311 70.997 293.608 69.7849C290.904 68.5729 288.589 66.9102 286.662 64.797C284.735 62.6837 283.274 60.1975 282.28 57.3383C281.285 54.4792 280.788 51.4025 280.788 48.1082C280.788 44.814 281.316 41.7373 282.373 38.8782C283.43 36.019 284.906 33.5328 286.802 31.4195C288.697 29.3063 290.982 27.6436 293.654 26.4316C296.327 25.2195 299.248 24.6135 302.418 24.6135C304.531 24.6135 306.396 24.8311 308.012 25.2662C309.628 25.7012 311.058 26.2606 312.301 26.9443C313.544 27.6281 314.601 28.3584 315.471 29.1353C316.341 29.9123 317.056 30.6737 317.615 31.4195H317.895V0H329.083V70.4842H318.454V63.7714H318.268C316.652 66.5062 314.476 68.4952 311.741 69.7383ZM299.621 60.4154C301.237 61.1612 303.07 61.5342 305.121 61.5342C307.173 61.5342 309.006 61.1612 310.622 60.4154C312.238 59.6695 313.621 58.675 314.771 57.4319C315.921 56.1888 316.791 54.7592 317.382 53.1432C317.972 51.5271 318.267 49.849 318.267 48.1086C318.267 46.3683 317.972 44.6901 317.382 43.074C316.791 41.458 315.921 40.0284 314.771 38.7853C313.621 37.5422 312.238 36.5477 310.622 35.8018C309.006 35.056 307.173 34.683 305.121 34.683C303.07 34.683 301.237 35.056 299.621 35.8018C298.005 36.5477 296.622 37.5422 295.472 38.7853C294.322 40.0284 293.452 41.458 292.861 43.074C292.271 44.6901 291.976 46.3683 291.976 48.1086C291.976 49.849 292.271 51.5271 292.861 53.1432C293.452 54.7592 294.322 56.1888 295.472 57.4319C296.622 58.675 298.005 59.6695 299.621 60.4154Z" fill="#43484C"/>
<path d="M341.082 1.23218H353.289L376.726 55.4298H376.921L400.553 1.23218H412.467V70.3708H404.264V12.3647H404.068L379.265 70.3708H374.284L349.48 12.3647H349.285V70.3708H341.082V1.23218Z" fill="#1C657F"/>
<path d="M424.491 1.23218H444.998C448.188 1.23218 451.216 1.55769 454.08 2.20871C457.01 2.79463 459.581 3.83627 461.795 5.33362C464.073 6.76586 465.864 8.71893 467.166 11.1928C468.533 13.6016 469.216 16.5963 469.216 20.1769C469.216 23.9529 468.5 27.0778 467.068 29.5517C465.636 32.0255 463.78 33.9786 461.502 35.4109C459.288 36.8431 456.847 37.8522 454.178 38.4381C451.509 39.024 448.97 39.317 446.561 39.317H432.694V70.3708H424.491V1.23218ZM432.694 31.7H446.561C450.662 31.7 453.983 30.7886 456.522 28.9657C459.126 27.0778 460.428 24.1807 460.428 20.2746C460.428 16.3684 459.126 13.504 456.522 11.6811C453.983 9.79312 450.662 8.84914 446.561 8.84914H432.694V31.7Z" fill="#1C657F"/>
</svg>
