<svg width="470" height="72" viewBox="0 0 470 72" fill="none" xmlns="http://www.w3.org/2000/svg">
<path d="M45.4162 70.7976V60.169H11.7591V42.2683H42.0598V31.6397H11.7591V15.4171H43.738V4.78857H0.0117188V70.7976H45.4162Z" fill="white"/>
<path d="M64.0844 70.7974V46.3704C64.0844 44.8786 64.2709 43.4491 64.6438 42.0816C65.0168 40.7142 65.6228 39.5022 66.4619 38.4455C67.301 37.3889 68.3576 36.5498 69.6318 35.9283C70.906 35.3067 72.4754 34.9959 74.3401 34.9959C77.0749 34.9959 79.0328 35.8195 80.2138 37.4666C81.3947 39.1137 81.9852 41.3358 81.9852 44.1328V44.1328V70.7974H93.1732V46.5568C93.1732 45.1272 93.3441 43.7132 93.6859 42.3147C94.0278 40.9162 94.5872 39.6731 95.3641 38.5854C96.1411 37.4977 97.1356 36.6275 98.3476 35.9749C99.5596 35.3222 101.036 34.9959 102.776 34.9959C104.454 34.9959 105.822 35.2756 106.878 35.835C107.935 36.3944 108.774 37.1558 109.396 38.1192C110.017 39.0826 110.452 40.2014 110.701 41.4756C110.95 42.7498 111.074 44.0706 111.074 45.438V45.438V70.7974H122.262V44.1328C122.262 41.4601 121.982 38.9583 121.423 36.6275C120.863 34.2967 119.947 32.2611 118.672 30.5207C117.398 28.7804 115.736 27.413 113.684 26.4185C111.633 25.424 109.116 24.9268 106.133 24.9268C102.776 24.9268 99.8859 25.5949 97.4619 26.9313C95.0378 28.2676 93.0178 30.3654 91.4017 33.2245C89.102 27.6927 84.4403 24.9268 77.4168 24.9268C73.6875 24.9268 70.7195 25.7503 68.513 27.3974C66.3065 29.0446 64.706 30.9248 63.7115 33.038V33.038H63.5251V26.0456H52.8965V70.7974H64.0844Z" fill="white"/>
<path fill-rule="evenodd" clip-rule="evenodd" d="M164.143 69.8651C160.911 71.2325 157.523 71.9162 153.98 71.9162C150.624 71.9162 147.454 71.3568 144.471 70.238C141.487 69.1192 138.908 67.5343 136.732 65.4831C134.557 63.432 132.832 60.9613 131.558 58.0711C130.284 55.1809 129.646 51.9643 129.646 48.4215C129.646 44.8786 130.284 41.6621 131.558 38.7719C132.832 35.8816 134.557 33.411 136.732 31.3598C138.908 29.3087 141.487 27.7237 144.471 26.605C147.454 25.4862 150.624 24.9268 153.98 24.9268C157.088 24.9268 159.932 25.4706 162.511 26.5583C165.091 27.6461 167.297 29.2155 169.131 31.2666C170.964 33.3177 172.394 35.8506 173.419 38.8651C174.445 41.8796 174.958 45.3448 174.958 49.2606V52.3373H140.834C141.207 55.6937 142.513 58.3042 144.75 60.1688C146.988 62.0335 149.692 62.9658 152.862 62.9658C155.659 62.9658 158.005 62.3909 159.901 61.241C161.796 60.0912 163.459 58.646 164.889 56.9057L172.907 62.9658C170.296 66.1979 167.375 68.4977 164.143 69.8651ZM140.834 43.9467H163.769C163.707 40.6524 162.682 38.0575 160.693 36.1617C158.704 34.266 155.938 33.3181 152.395 33.3181C149.039 33.3181 146.381 34.2815 144.424 36.2083C142.466 38.1352 141.269 40.7146 140.834 43.9467Z" fill="white"/>
<path d="M193.998 70.7974V46.8365C193.998 46.215 194.137 45.2826 194.417 44.0395C194.697 42.7964 195.256 41.5533 196.095 40.3102C196.934 39.0671 198.146 37.9638 199.731 37.0004C201.316 36.037 203.414 35.5553 206.025 35.5553C206.895 35.5553 207.78 35.633 208.682 35.7884C209.583 35.9438 210.5 36.1458 211.432 36.3944V36.3944V25.5794C210.748 25.3929 210.08 25.2375 209.428 25.1132C208.775 24.9889 208.107 24.9268 207.423 24.9268C204.44 24.9268 201.798 25.6415 199.498 27.0711C197.199 28.5007 195.427 30.5207 194.184 33.1313V33.1313H193.998V26.0456H182.81V70.7974H193.998Z" fill="white"/>
<path fill-rule="evenodd" clip-rule="evenodd" d="M236.729 70.1914C234.243 71.3413 231.508 71.9162 228.525 71.9162C226.474 71.9162 224.469 71.6365 222.511 71.0771C220.553 70.5177 218.813 69.6786 217.29 68.5598C215.767 67.441 214.54 66.0425 213.607 64.3643C212.675 62.6861 212.209 60.7282 212.209 58.4907C212.209 56.0666 212.644 53.9999 213.514 52.2907C214.384 50.5814 215.55 49.1518 217.01 48.0019C218.471 46.8521 220.165 45.9353 222.092 45.2516C224.019 44.5679 226.023 44.0551 228.105 43.7132C230.187 43.3714 232.285 43.1538 234.398 43.0606C236.512 42.9674 238.501 42.9207 240.365 42.9207H243.162V41.7087C243.162 38.9117 242.199 36.814 240.272 35.4155C238.345 34.017 235.89 33.3177 232.907 33.3177C230.545 33.3177 228.338 33.7373 226.287 34.5764C224.236 35.4155 222.465 36.5498 220.973 37.9794L215.099 32.1057C217.585 29.5573 220.491 27.7237 223.816 26.605C227.142 25.4862 230.576 24.9268 234.119 24.9268C237.289 24.9268 239.961 25.2842 242.137 25.9989C244.312 26.7137 246.115 27.6305 247.544 28.7493C248.974 29.8681 250.077 31.1578 250.854 32.6185C251.631 34.0791 252.19 35.5553 252.532 37.0471C252.874 38.5388 253.076 39.9839 253.138 41.3824C253.2 42.7809 253.232 44.0085 253.232 45.0651V70.7974H243.162V64.644H242.883C241.267 67.1924 239.215 69.0415 236.729 70.1914ZM228.431 63.1991C229.363 63.4166 230.296 63.5254 231.228 63.5254C235.082 63.5254 237.925 62.6086 239.759 60.775C241.592 58.9414 242.509 56.4397 242.509 53.2697V50.7525H240.178C238.625 50.7525 236.884 50.8146 234.957 50.9389C233.031 51.0632 231.212 51.3585 229.503 51.8246C227.794 52.2908 226.349 52.9745 225.168 53.8758C223.987 54.777 223.396 56.0357 223.396 57.6517C223.396 58.7083 223.63 59.5941 224.096 60.3088C224.562 61.0236 225.168 61.6296 225.914 62.1269C226.66 62.6241 227.499 62.9815 228.431 63.1991Z" fill="white"/>
<path d="M274.045 70.7977V0.313477H262.857V70.7977H274.045Z" fill="white"/>
<path fill-rule="evenodd" clip-rule="evenodd" d="M311.741 70.0518C309.007 71.2949 306.054 71.9165 302.884 71.9165C299.404 71.9165 296.311 71.3104 293.608 70.0984C290.904 68.8864 288.589 67.2237 286.662 65.1104C284.735 62.9972 283.274 60.5109 282.28 57.6518C281.285 54.7926 280.788 51.716 280.788 48.4217C280.788 45.1275 281.316 42.0508 282.373 39.1917C283.43 36.3325 284.906 33.8463 286.802 31.733C288.697 29.6197 290.982 27.9571 293.654 26.745C296.327 25.533 299.248 24.927 302.418 24.927C304.531 24.927 306.396 25.1445 308.012 25.5796C309.628 26.0147 311.058 26.5741 312.301 27.2578C313.544 27.9415 314.601 28.6719 315.471 29.4488C316.341 30.2257 317.056 30.9871 317.615 31.733H317.895V0.313477H329.083V70.7977H318.454V64.0849H318.268C316.652 66.8197 314.476 68.8087 311.741 70.0518ZM299.621 60.7296C301.237 61.4754 303.07 61.8484 305.121 61.8484C307.173 61.8484 309.006 61.4754 310.622 60.7296C312.238 59.9837 313.621 58.9892 314.771 57.7461C315.921 56.503 316.791 55.0734 317.382 53.4574C317.972 51.8414 318.267 50.1632 318.267 48.4228C318.267 46.6825 317.972 45.0043 317.382 43.3882C316.791 41.7722 315.921 40.3426 314.771 39.0995C313.621 37.8564 312.238 36.8619 310.622 36.1161C309.006 35.3702 307.173 34.9973 305.121 34.9973C303.07 34.9973 301.237 35.3702 299.621 36.1161C298.005 36.8619 296.622 37.8564 295.472 39.0995C294.322 40.3426 293.452 41.7722 292.861 43.3882C292.271 45.0043 291.976 46.6825 291.976 48.4228C291.976 50.1632 292.271 51.8414 292.861 53.4574C293.452 55.0734 294.322 56.503 295.472 57.7461C296.622 58.9892 298.005 59.9837 299.621 60.7296Z" fill="white"/>
<path d="M341.082 1.5459H353.289L376.726 55.7435H376.921L400.553 1.5459H412.467V70.6845H404.264V12.6784H404.068L379.265 70.6845H374.284L349.48 12.6784H349.285V70.6845H341.082V1.5459Z" fill="#009874"/>
<path d="M424.491 1.5459H444.998C448.188 1.5459 451.216 1.87141 454.08 2.52243C457.01 3.10835 459.581 4.14999 461.795 5.64734C464.073 7.07959 465.864 9.03265 467.166 11.5065C468.533 13.9153 469.216 16.91 469.216 20.4907C469.216 24.2666 468.5 27.3915 467.068 29.8654C465.636 32.3393 463.78 34.2923 461.502 35.7246C459.288 37.1568 456.847 38.1659 454.178 38.7518C451.509 39.3378 448.97 39.6307 446.561 39.6307H432.694V70.6845H424.491V1.5459ZM432.694 32.0137H446.561C450.662 32.0137 453.983 31.1023 456.522 29.2795C459.126 27.3915 460.428 24.4944 460.428 20.5883C460.428 16.6822 459.126 13.8177 456.522 11.9948C453.983 10.1068 450.662 9.16286 446.561 9.16286H432.694V32.0137Z" fill="#009874"/>
</svg>
