<?xml version="1.0" encoding="UTF-8"?>
<!--
==================================================
 Licensed Materials - Property of HCL Technologies

 HCL Commerce

 (C) Copyright HCL Technologies Limited 2020

==================================================
-->
<svg width="162px" height="32px" viewBox="0 0 162 32" version="1.1" xmlns="http://www.w3.org/2000/svg" xmlns:xlink="http://www.w3.org/1999/xlink">
    <!-- Generator: Sketch 64 (93537) - https://sketch.com -->
    <title>Sapphire Logo</title>
    <desc>Created with Sketch.</desc>
    <g id="Sapphire" stroke="none" stroke-width="1" fill="none" fill-rule="evenodd">
        <g id="Sapphire-/-Normal">
            <path d="M42.427493,25.0447324 C43.6173521,25.0447324 44.7477183,24.8932958 45.8185915,24.5904225 C46.8894648,24.2875493 47.8305352,23.8224225 48.6418028,23.1950423 C49.4530704,22.567662 50.0966761,21.7780282 50.5726197,20.8261408 C51.0485634,19.8742535 51.2865352,18.7601127 51.2865352,17.4837183 C51.2865352,16.1424225 51.0269296,15.0715493 50.5077183,14.2710986 C49.988507,13.4706479 49.3340845,12.8324507 48.5444507,12.356507 C47.7548169,11.8805634 46.9056901,11.5127887 45.9970704,11.2531831 C45.0884507,10.9935775 44.2393239,10.7339718 43.4496901,10.4743662 C42.6600563,10.2147606 42.0056338,9.90107042 41.4864225,9.53329577 C40.9672113,9.16552113 40.7076056,8.63549296 40.7076056,7.94321127 C40.7076056,7.51053521 40.8157746,7.14276056 41.0321127,6.83988732 C41.2484507,6.53701408 41.5296901,6.2936338 41.875831,6.10974648 C42.2219718,5.92585915 42.5897465,5.79064789 42.9791549,5.70411268 C43.3685634,5.61757746 43.7471549,5.57430986 44.1149296,5.57430986 C44.7423099,5.57430986 45.4075493,5.69870423 46.1106479,5.94749296 C46.8137465,6.19628169 47.3708169,6.58028169 47.7818592,7.09949296 L47.7818592,7.09949296 L51.2540845,3.30276056 C50.2805634,2.43740845 49.1880563,1.82084507 47.9765634,1.45307042 C46.7650704,1.08529577 45.5103099,0.901408451 44.2122817,0.901408451 C43.0873239,0.901408451 41.9948169,1.05825352 40.9347606,1.37194366 C39.8747042,1.6856338 38.9390423,2.15616901 38.1277746,2.7835493 C37.316507,3.41092958 36.667493,4.18974648 36.1807324,5.12 C35.6939718,6.05025352 35.4505915,7.13194366 35.4505915,8.36507042 C35.4505915,9.64146479 35.7156056,10.6690704 36.2456338,11.4478873 C36.775662,12.2267042 37.4409014,12.8540845 38.2413521,13.3300282 C39.0418028,13.8059718 39.9071549,14.1845634 40.8374085,14.4658028 C41.767662,14.7470423 42.6330141,15.0282817 43.4334648,15.3095211 C44.2339155,15.5907606 44.8991549,15.931493 45.4291831,16.3317183 C45.9592113,16.7319437 46.2242254,17.2781972 46.2242254,17.9704789 C46.2242254,18.3815211 46.1214648,18.7384789 45.9159437,19.0413521 C45.7104225,19.3442254 45.44,19.5930141 45.1046761,19.7877183 C44.7693521,19.9824225 44.3907606,20.1284507 43.9689014,20.2258028 C43.5470423,20.3231549 43.1305915,20.371831 42.7195493,20.371831 C41.875831,20.371831 41.0591549,20.1825352 40.2695211,19.8039437 C39.4798873,19.4253521 38.8254648,18.8899155 38.3062535,18.1976338 L38.3062535,18.1976338 L34.7042254,22.1566197 C35.8075493,23.1734085 36.9974085,23.9089577 38.2738028,24.3632676 C39.5501972,24.8175775 40.9347606,25.0447324 42.427493,25.0447324 Z" id="Path" fill="#0091FF" fill-rule="nonzero"></path>
            <path d="M60.4790986,8.30016901 C61.9069296,8.30016901 63.0805634,8.47864789 64,8.83560563 C64.9194366,9.19256338 65.6549859,9.7171831 66.2066479,10.4094648 C66.7583099,11.1017465 67.1423099,11.9508732 67.3586479,12.9568451 C67.5749859,13.9628169 67.6831549,15.1256338 67.6831549,16.4452958 L67.6831549,16.4452958 L67.6831549,24.4606197 L63.2049577,24.4606197 L63.2049577,22.4811268 L63.1400563,22.4811268 L62.988128,22.7053316 C62.4669501,23.4330141 61.7982689,23.9640256 60.9820845,24.2983662 C60.0842817,24.6661408 59.1378028,24.8500282 58.1426479,24.8500282 C57.4070986,24.8500282 56.6985915,24.7472676 56.0171268,24.5417465 C55.335662,24.3362254 54.7353239,24.0279437 54.2161127,23.6169014 C53.6969014,23.2058592 53.2858592,22.6974648 52.9829859,22.0917183 C52.6801127,21.4859718 52.5286761,20.7828732 52.5286761,19.9824225 C52.5286761,19.0738028 52.696338,18.3058028 53.031662,17.6784225 C53.3669859,17.0510423 53.8212958,16.531831 54.3945915,16.1207887 C54.9678873,15.7097465 55.6223099,15.3906479 56.3578592,15.163493 C57.0934085,14.936338 57.856,14.7686761 58.6456338,14.660507 C59.4352676,14.552338 60.2249014,14.4874366 61.0145352,14.4658028 C61.804169,14.444169 62.5343099,14.4333521 63.2049577,14.4333521 C63.2049577,13.568 62.8966761,12.8811268 62.2801127,12.3727324 C61.6635493,11.864338 60.9334085,11.6101408 60.0896901,11.6101408 C59.2892394,11.6101408 58.5590986,11.7778028 57.8992676,12.1131268 C57.2394366,12.4484507 56.6499155,12.908169 56.1307042,13.4922817 L56.1307042,13.4922817 L53.5346479,10.8313239 L53.8117769,10.5845363 C54.6567932,9.86315718 55.6244732,9.31263099 56.7148169,8.93295775 C57.9263099,8.51109859 59.1810704,8.30016901 60.4790986,8.30016901 Z M63.2049577,17.5486197 L62.0042817,17.5486197 L61.8127324,17.5499718 C61.4807136,17.5544789 61.0848451,17.5702535 60.6251268,17.5972958 C60.0734648,17.6297465 59.5434366,17.7216901 59.0350423,17.8731268 C58.5266479,18.0245634 58.0939718,18.2517183 57.7370141,18.5545915 C57.3800563,18.8574648 57.2015775,19.2793239 57.2015775,19.820169 C57.2015775,20.4042817 57.4503662,20.8369577 57.9479437,21.1181972 C58.4455211,21.3994366 58.9647324,21.5400563 59.5055775,21.5400563 C59.9815211,21.5400563 60.4412394,21.4751549 60.8847324,21.3453521 C61.3282254,21.2155493 61.7230423,21.031662 62.0691831,20.7936901 C62.4153239,20.5557183 62.6911549,20.2528451 62.8966761,19.8850704 C63.1021972,19.5172958 63.2049577,19.0846197 63.2049577,18.5870423 L63.2049577,18.5870423 L63.2049577,17.5486197 Z" id="Combined-Shape" fill="#0091FF" fill-rule="nonzero"></path>
            <path d="M79.9567324,8.37228169 C81.1249577,8.37228169 82.1850141,8.57239437 83.1369014,8.97261972 C84.0887887,9.37284507 84.9054648,9.93532394 85.5869296,10.6600563 C86.2683944,11.3847887 86.7930141,12.2447324 87.1607887,13.2398873 C87.5285634,14.2350423 87.7124507,15.3275493 87.7124507,16.5174085 C87.7124507,17.6207324 87.5447887,18.6753803 87.2094648,19.6813521 C86.8741408,20.6873239 86.3981972,21.5797183 85.7816338,22.3585352 C85.1650704,23.1373521 84.4132958,23.7593239 83.5263099,24.2244507 C82.6393239,24.6895775 81.6333521,24.9221408 80.5083944,24.9221408 C79.4916056,24.9221408 78.5451268,24.7652958 77.6689577,24.4516056 C76.7927887,24.1379155 76.0734648,23.6024789 75.5109859,22.8452958 L75.5109859,22.8452958 L75.4460845,22.8452958 L75.4460845,31.931493 L70.5784789,31.931493 L70.5784789,8.76169014 L75.0566761,8.76169014 L75.0566761,10.8385352 L75.1215775,10.8385352 L75.2455392,10.6691425 C75.4203403,10.4424203 75.6332169,10.2122366 75.884169,9.97859155 C76.1978592,9.68653521 76.5656338,9.42152113 76.987493,9.1835493 C77.4093521,8.94557746 77.8690704,8.75087324 78.3666479,8.59943662 C78.8642254,8.448 79.3942535,8.37228169 79.9567324,8.37228169 Z M78.9507606,12.6557746 C77.7176338,12.6557746 76.760338,13.0235493 76.0788732,13.7590986 C75.3974085,14.4946479 75.0566761,15.4573521 75.0566761,16.6472113 C75.0566761,17.8370704 75.3974085,18.7997746 76.0788732,19.5353239 C76.760338,20.2708732 77.7176338,20.6386479 78.9507606,20.6386479 C80.1838873,20.6386479 81.1411831,20.2708732 81.8226479,19.5353239 C82.5041127,18.7997746 82.8448451,17.8370704 82.8448451,16.6472113 C82.8448451,15.4573521 82.5041127,14.4946479 81.8226479,13.7590986 C81.1411831,13.0235493 80.1838873,12.6557746 78.9507606,12.6557746 Z" id="Combined-Shape-Copy-44" fill="#009CFF" fill-rule="nonzero"></path>
            <path d="M99.0485634,8.37228169 C100.216789,8.37228169 101.276845,8.57239437 102.228732,8.97261972 C103.18062,9.37284507 103.997296,9.93532394 104.678761,10.6600563 C105.360225,11.3847887 105.884845,12.2447324 106.25262,13.2398873 C106.620394,14.2350423 106.804282,15.3275493 106.804282,16.5174085 C106.804282,17.6207324 106.63662,18.6753803 106.301296,19.6813521 C105.965972,20.6873239 105.490028,21.5797183 104.873465,22.3585352 C104.256901,23.1373521 103.505127,23.7593239 102.618141,24.2244507 C101.731155,24.6895775 100.725183,24.9221408 99.6002254,24.9221408 C98.5834366,24.9221408 97.6369577,24.7652958 96.7607887,24.4516056 C95.8846197,24.1379155 95.1652958,23.6024789 94.6028169,22.8452958 L94.6028169,22.8452958 L94.5379155,22.8452958 L94.5379155,31.931493 L89.6703099,31.931493 L89.6703099,8.76169014 L94.148507,8.76169014 L94.148507,10.8385352 L94.2134085,10.8385352 L94.3373701,10.6691425 C94.5121713,10.4424203 94.7250479,10.2122366 94.976,9.97859155 C95.2896901,9.68653521 95.6574648,9.42152113 96.0793239,9.1835493 C96.5011831,8.94557746 96.9609014,8.75087324 97.4584789,8.59943662 C97.9560563,8.448 98.4860845,8.37228169 99.0485634,8.37228169 Z M98.0425915,12.6557746 C96.8094648,12.6557746 95.852169,13.0235493 95.1707042,13.7590986 C94.4892394,14.4946479 94.148507,15.4573521 94.148507,16.6472113 C94.148507,17.8370704 94.4892394,18.7997746 95.1707042,19.5353239 C95.852169,20.2708732 96.8094648,20.6386479 98.0425915,20.6386479 C99.2757183,20.6386479 100.233014,20.2708732 100.914479,19.5353239 C101.595944,18.7997746 101.936676,17.8370704 101.936676,16.6472113 C101.936676,15.4573521 101.595944,14.4946479 100.914479,13.7590986 C100.233014,13.0235493 99.2757183,12.6557746 98.0425915,12.6557746 Z" id="Combined-Shape-Copy-45" fill="#009CFF" fill-rule="nonzero"></path>
            <path d="M113.626141,24.5327324 L113.626141,16.679662 C113.626141,16.1604507 113.658592,15.6628732 113.723493,15.1869296 C113.788394,14.7109859 113.923606,14.2837183 114.129127,13.9051268 C114.334648,13.5265352 114.632113,13.223662 115.021521,12.996507 C115.41093,12.7693521 115.919324,12.6557746 116.546704,12.6557746 C117.174085,12.6557746 117.655437,12.7855775 117.990761,13.0451831 C118.326085,13.3047887 118.574873,13.6401127 118.737127,14.0511549 C118.89938,14.4621972 118.996732,14.9110986 119.029183,15.3978592 C119.061634,15.8846197 119.077859,16.3551549 119.077859,16.8094648 L119.077859,16.8094648 L119.077859,24.5327324 L123.945465,24.5327324 L123.945465,15.8359437 C123.945465,14.7758873 123.869746,13.7915493 123.71831,12.8829296 C123.566873,11.9743099 123.280225,11.1846761 122.858366,10.5140282 C122.436507,9.84338028 121.846986,9.31876056 121.089803,8.94016901 C120.33262,8.56157746 119.337465,8.37228169 118.104338,8.37228169 C117.520225,8.37228169 116.97938,8.448 116.481803,8.59943662 C115.984225,8.75087324 115.551549,8.94557746 115.183775,9.1835493 C114.816,9.42152113 114.50231,9.69194366 114.242704,9.9948169 C113.983099,10.2976901 113.799211,10.6005634 113.691042,10.9034366 L113.691042,10.9034366 L113.626141,10.9034366 L113.626141,3.20244613e-15 L108.758535,3.20244613e-15 L108.758535,24.5327324 L113.626141,24.5327324 Z" id="Path-Copy-10" fill="#009CFF" fill-rule="nonzero"></path>
            <path d="M128.982535,6.61994366 C129.761352,6.61994366 130.426592,6.34411268 130.978254,5.7924507 C131.529915,5.24078873 131.805746,4.5755493 131.805746,3.79673239 C131.805746,3.01791549 131.529915,2.35267606 130.978254,1.80101408 C130.426592,1.24935211 129.761352,0.973521127 128.982535,0.973521127 C128.203718,0.973521127 127.538479,1.24935211 126.986817,1.80101408 C126.435155,2.35267606 126.159324,3.01791549 126.159324,3.79673239 C126.159324,4.5755493 126.435155,5.24078873 126.986817,5.7924507 C127.538479,6.34411268 128.203718,6.61994366 128.982535,6.61994366 Z" id="Path" fill="#009CFF" fill-rule="nonzero"></path>
            <polygon id="Path" fill="#009CFF" fill-rule="nonzero" points="131.416338 24.5327324 131.416338 8.76169014 126.548732 8.76169014 126.548732 24.5327324"></polygon>
            <path d="M139.112563,24.5327324 L139.112563,17.9452394 C139.112563,17.1664225 139.155831,16.452507 139.242366,15.803493 C139.328901,15.1544789 139.518197,14.5974085 139.810254,14.1322817 C140.10231,13.6671549 140.518761,13.3047887 141.059606,13.0451831 C141.600451,12.7855775 142.336,12.6557746 143.266254,12.6557746 C143.634028,12.6557746 143.985577,12.6828169 144.320901,12.7369014 C144.656225,12.7909859 144.996958,12.8721127 145.343099,12.9802817 L145.343099,12.9802817 L145.343099,8.53453521 C145.105127,8.4696338 144.845521,8.4263662 144.564282,8.40473239 C144.283042,8.38309859 144.001803,8.37228169 143.720563,8.37228169 C142.638873,8.37228169 141.74107,8.61566197 141.027155,9.10242254 C140.313239,9.5891831 139.696676,10.3193239 139.177465,11.2928451 L139.177465,11.2928451 L139.112563,11.2928451 L139.112563,8.76169014 L134.244958,8.76169014 L134.244958,24.5327324 L139.112563,24.5327324 Z" id="Path-Copy-11" fill="#009CFF" fill-rule="nonzero"></path>
            <path d="M154.375211,8.37228169 C155.500169,8.37228169 156.522366,8.56698592 157.441803,8.95639437 C158.361239,9.34580282 159.140056,9.90287324 159.778254,10.6276056 C160.416451,11.352338 160.90862,12.2230986 161.254761,13.2398873 C161.600901,14.2566761 161.773972,15.3924507 161.773972,16.6472113 L161.773972,16.6472113 L161.773972,18.1723944 L150.481127,18.1723944 L150.53986,18.4214066 C150.75441,19.235803 151.156691,19.8937567 151.746704,20.3952676 C152.395718,20.9469296 153.196169,21.2227606 154.148056,21.2227606 C154.948507,21.2227606 155.624563,21.0442817 156.176225,20.6873239 C156.727887,20.3303662 157.209239,19.8706479 157.620282,19.308169 L157.620282,19.308169 L161.027606,21.8068732 L160.810105,22.0726472 C160.06812,22.9397872 159.156282,23.6191959 158.074592,24.1108732 C156.884732,24.6517183 155.651606,24.9221408 154.375211,24.9221408 C153.163718,24.9221408 152.022535,24.7274366 150.951662,24.3380282 C149.880789,23.9486197 148.950535,23.3915493 148.160901,22.6668169 C147.371268,21.9420845 146.749296,21.0713239 146.294986,20.0545352 C145.840676,19.0377465 145.613521,17.9019718 145.613521,16.6472113 C145.613521,15.3924507 145.840676,14.2566761 146.294986,13.2398873 C146.749296,12.2230986 147.371268,11.352338 148.160901,10.6276056 C148.950535,9.90287324 149.880789,9.34580282 150.951662,8.95639437 C152.022535,8.56698592 153.163718,8.37228169 154.375211,8.37228169 Z M153.920901,11.8769577 C153.380056,11.8769577 152.904113,11.963493 152.49307,12.1365634 C152.082028,12.3096338 151.730479,12.5313803 151.438423,12.8018028 C151.146366,13.0722254 150.919211,13.3859155 150.756958,13.7428732 C150.594704,14.099831 150.502761,14.4730141 150.481127,14.8624225 L150.481127,14.8624225 L156.906366,14.8624225 C156.928,14.040338 156.657577,13.3372394 156.095099,12.7531268 C155.53262,12.1690141 154.807887,11.8769577 153.920901,11.8769577 Z" id="Combined-Shape-Copy-46" fill="#009CFF" fill-rule="nonzero"></path>
            <g id="Sapphire-/-Gemstone" fill-rule="evenodd" stroke-width="1">
                <g id="Group-2">
                    <path d="M6.52216693,0 L19.5665008,0 C23.1685941,0 26.0886677,2.9200736 26.0886677,6.52216693 L26.0886677,19.5665008 C26.0886677,23.1685941 23.1685941,26.0886677 19.5665008,26.0886677 L6.52216693,26.0886677 C2.9200736,26.0886677 0,23.1685941 0,19.5665008 L0,6.52216693 C0,2.9200736 2.9200736,0 6.52216693,0 Z" id="Rectangle-Copy-6" fill="#54B5FF"></path>
                    <path d="M26.1089307,6.54242988 L26.1089307,19.5867637 C26.1089307,23.1888571 23.1888571,26.1089307 19.5867637,26.1089307 L6.54242988,26.1089307 C4.74140956,26.1089307 3.11088919,25.3789336 1.93061322,24.198684 L24.198684,1.93061322 C25.3789336,3.11088919 26.1089307,4.74140956 26.1089307,6.54242988 Z" id="Path" fill="#016FC2"></path>
                    <rect id="Rectangle-Copy-7" fill="#0091FF" x="6.52216693" y="6.52216693" width="13.0443339" height="13.0443339"></rect>
                </g>
            </g>
        </g>
    </g>
</svg>