<?xml version="1.0" encoding="UTF-8"?>
<svg width="708px" height="142px" viewBox="0 0 708 142" version="1.1" xmlns="http://www.w3.org/2000/svg" xmlns:xlink="http://www.w3.org/1999/xlink">
    <title>Group 8</title>
    <g id="Normal-and-Plus-Logos" stroke="none" stroke-width="1" fill="none" fill-rule="evenodd">
        <g id="Group-8">
            <path d="M181.408,111.592 C186.4,111.592 191.152,110.92 195.664,109.576 C200.176,108.232 204.136,106.216 207.544,103.528 C210.952,100.84 213.664,97.456 215.68,93.376 C217.696,89.296 218.704,84.52 218.704,79.048 C218.704,73 217.504,68.152 215.104,64.504 C212.704,60.856 209.728,57.928 206.176,55.72 C202.624,53.512 198.736,51.784 194.512,50.536 C190.288,49.288 186.4,47.992 182.848,46.648 C179.296,45.304 176.32,43.72 173.92,41.896 C171.52,40.072 170.32,37.432 170.32,33.976 C170.32,31.672 170.8,29.68 171.76,28 C172.72,26.32 173.992,24.952 175.576,23.896 C177.16,22.84 178.936,22.072 180.904,21.592 C182.872,21.112 184.912,20.872 187.024,20.872 C190.576,20.872 193.96,21.52 197.176,22.816 C200.392,24.112 202.96,26.152 204.88,28.936 L204.88,28.936 L218.128,14.968 C214.096,11.224 209.56,8.536 204.52,6.904 C199.48,5.272 194.272,4.456 188.896,4.456 C184.192,4.456 179.584,5.08 175.072,6.328 C170.56,7.576 166.552,9.472 163.048,12.016 C159.544,14.56 156.712,17.752 154.552,21.592 C152.392,25.432 151.312,29.992 151.312,35.272 C151.312,41.32 152.512,46.144 154.912,49.744 C157.312,53.344 160.288,56.224 163.84,58.384 C167.392,60.544 171.28,62.248 175.504,63.496 C179.728,64.744 183.616,66.064 187.168,67.456 C190.72,68.848 193.696,70.552 196.096,72.568 C198.496,74.584 199.696,77.464 199.696,81.208 C199.696,83.512 199.168,85.552 198.112,87.328 C197.056,89.104 195.664,90.568 193.936,91.72 C192.208,92.872 190.288,93.736 188.176,94.312 C186.064,94.888 183.952,95.176 181.84,95.176 C177.808,95.176 173.992,94.24 170.392,92.368 C166.792,90.496 163.888,87.88 161.68,84.52 L161.68,84.52 L148,97.768 C152.224,102.76 157.264,106.312 163.12,108.424 C168.976,110.536 175.072,111.592 181.408,111.592 Z" id="Path-Copy-65" fill="#000000" fill-rule="nonzero"></path>
            <path d="M261.216,38.152 C266.112,38.152 270.24,38.704 273.6,39.808 C276.96,40.912 279.744,42.328 281.952,44.056 C284.16,45.784 285.864,47.776 287.064,50.032 C288.264,52.288 289.128,54.568 289.656,56.872 C290.184,59.176 290.496,61.408 290.592,63.568 C290.688,65.728 290.736,67.624 290.736,69.256 L290.736,69.256 L290.736,109 L275.184,109 L275.184,99.496 L274.752,99.496 L274.461018,99.9453609 C272.011314,103.650095 268.940308,106.356308 265.248,108.064 C261.408,109.84 257.184,110.728 252.576,110.728 C249.408,110.728 246.312,110.296 243.288,109.432 C240.264,108.568 237.576,107.272 235.224,105.544 C232.872,103.816 230.976,101.656 229.536,99.064 C228.096,96.472 227.376,93.448 227.376,89.992 C227.376,86.248 228.048,83.056 229.392,80.416 C230.736,77.776 232.536,75.568 234.792,73.792 C237.048,72.016 239.664,70.6 242.64,69.544 C245.616,68.488 248.712,67.696 251.928,67.168 C255.144,66.64 258.384,66.304 261.648,66.16 C264.912,66.016 267.984,65.944 270.864,65.944 L270.864,65.944 L275.184,65.944 L275.184,64.072 L275.179641,63.6701641 C275.089547,59.5505547 273.603,56.4445 270.72,54.352 C267.744,52.192 263.952,51.112 259.344,51.112 C255.696,51.112 252.288,51.76 249.12,53.056 C245.952,54.352 243.216,56.104 240.912,58.312 L240.912,58.312 L231.84,49.24 L232.269333,48.8072099 C236.013333,45.0957366 240.358222,42.408 245.304,40.744 C250.44,39.016 255.744,38.152 261.216,38.152 Z M274.176,78.04 L270.576,78.04 L269.914314,78.0423802 C267.684893,78.0582479 265.217455,78.1534545 262.512,78.328 C259.536,78.52 256.728,78.976 254.088,79.696 C251.448,80.416 249.216,81.472 247.392,82.864 C245.568,84.256 244.656,86.2 244.656,88.696 C244.656,90.328 245.016,91.696 245.736,92.8 C246.456,93.904 247.392,94.84 248.544,95.608 C249.696,96.376 250.992,96.928 252.432,97.264 C253.872,97.6 255.312,97.768 256.752,97.768 C262.704,97.768 267.096,96.352 269.928,93.52 C272.76,90.688 274.176,86.824 274.176,81.928 L274.176,81.928 L274.176,78.04 Z" id="Combined-Shape-Copy-17" fill="#000000" fill-rule="nonzero"></path>
            <path d="M347.776,38.152 C353.056,38.152 357.808,39.088 362.032,40.96 C366.256,42.832 369.856,45.4 372.832,48.664 C375.808,51.928 378.064,55.768 379.6,60.184 C381.136,64.6 381.904,69.352 381.904,74.44 C381.904,79.528 381.088,84.28 379.456,88.696 C377.824,93.112 375.544,96.952 372.616,100.216 C369.688,103.48 366.16,106.048 362.032,107.92 C357.904,109.792 353.392,110.728 348.496,110.728 C345.232,110.728 342.352,110.392 339.856,109.72 C337.36,109.048 335.152,108.184 333.232,107.128 C331.312,106.072 329.68,104.944 328.336,103.744 C326.992,102.544 325.888,101.368 325.024,100.216 L325.024,100.216 L324.592,100.216 L324.592,141.832 L307.312,141.832 L307.312,39.88 L323.728,39.88 L323.728,50.248 L324.016,50.248 L324.286735,49.7998367 C326.753102,45.8060408 330.022857,42.8834286 334.096,41.032 C338.32,39.112 342.88,38.152 347.776,38.152 Z M344.32,53.704 C341.152,53.704 338.32,54.28 335.824,55.432 C333.328,56.584 331.192,58.12 329.416,60.04 C327.64,61.96 326.296,64.168 325.384,66.664 C324.472,69.16 324.016,71.752 324.016,74.44 C324.016,77.128 324.472,79.72 325.384,82.216 C326.296,84.712 327.64,86.92 329.416,88.84 C331.192,90.76 333.328,92.296 335.824,93.448 C338.32,94.6 341.152,95.176 344.32,95.176 C347.488,95.176 350.32,94.6 352.816,93.448 C355.312,92.296 357.448,90.76 359.224,88.84 C361,86.92 362.344,84.712 363.256,82.216 C364.168,79.72 364.624,77.128 364.624,74.44 C364.624,71.752 364.168,69.16 363.256,66.664 C362.344,64.168 361,61.96 359.224,60.04 C357.448,58.12 355.312,56.584 352.816,55.432 C350.32,54.28 347.488,53.704 344.32,53.704 Z" id="Combined-Shape-Copy-18" fill="#000000" fill-rule="nonzero"></path>
            <path d="M434.496,38.152 C439.776,38.152 444.528,39.088 448.752,40.96 C452.976,42.832 456.576,45.4 459.552,48.664 C462.528,51.928 464.784,55.768 466.32,60.184 C467.856,64.6 468.624,69.352 468.624,74.44 C468.624,79.528 467.808,84.28 466.176,88.696 C464.544,93.112 462.264,96.952 459.336,100.216 C456.408,103.48 452.88,106.048 448.752,107.92 C444.624,109.792 440.112,110.728 435.216,110.728 C431.952,110.728 429.072,110.392 426.576,109.72 C424.08,109.048 421.872,108.184 419.952,107.128 C418.032,106.072 416.4,104.944 415.056,103.744 C413.712,102.544 412.608,101.368 411.744,100.216 L411.744,100.216 L411.312,100.216 L411.312,141.832 L394.032,141.832 L394.032,39.88 L410.448,39.88 L410.448,50.248 L410.736,50.248 L411.006735,49.7998367 C413.473102,45.8060408 416.742857,42.8834286 420.816,41.032 C425.04,39.112 429.6,38.152 434.496,38.152 Z M431.04,53.704 C427.872,53.704 425.04,54.28 422.544,55.432 C420.048,56.584 417.912,58.12 416.136,60.04 C414.36,61.96 413.016,64.168 412.104,66.664 C411.192,69.16 410.736,71.752 410.736,74.44 C410.736,77.128 411.192,79.72 412.104,82.216 C413.016,84.712 414.36,86.92 416.136,88.84 C417.912,90.76 420.048,92.296 422.544,93.448 C425.04,94.6 427.872,95.176 431.04,95.176 C434.208,95.176 437.04,94.6 439.536,93.448 C442.032,92.296 444.168,90.76 445.944,88.84 C447.72,86.92 449.064,84.712 449.976,82.216 C450.888,79.72 451.344,77.128 451.344,74.44 C451.344,71.752 450.888,69.16 449.976,66.664 C449.064,64.168 447.72,61.96 445.944,60.04 C444.168,58.12 442.032,56.584 439.536,55.432 C437.04,54.28 434.208,53.704 431.04,53.704 Z" id="Combined-Shape-Copy-19" fill="#000000" fill-rule="nonzero"></path>
            <path d="M498.032,109 L498.032,71.272 C498.032,68.968 498.32,66.76 498.896,64.648 C499.472,62.536 500.408,60.664 501.704,59.032 C503,57.4 504.632,56.104 506.6,55.144 C508.568,54.184 510.992,53.704 513.872,53.704 C516.848,53.704 519.2,54.4 520.928,55.792 C522.656,57.184 523.928,58.912 524.744,60.976 C525.56,63.04 526.064,65.248 526.256,67.6 C526.448,69.952 526.544,72.088 526.544,74.008 L526.544,74.008 L526.544,109 L543.824,109 L543.824,65.368 C543.824,61.816 543.392,58.408 542.528,55.144 C541.664,51.88 540.224,49 538.208,46.504 C536.192,44.008 533.576,41.992 530.36,40.456 C527.144,38.92 523.232,38.152 518.624,38.152 C513.248,38.152 508.856,39.328 505.448,41.68 C502.04,44.032 499.664,46.648 498.32,49.528 L498.32,49.528 L498.032,49.528 L498.032,0.136 L480.752,0.136 L480.752,109 L498.032,109 Z" id="Path-Copy-66" fill="#000000" fill-rule="nonzero"></path>
            <path d="M575.976,39.88 L575.976,109 L558.696,109 L558.696,39.88 L575.976,39.88 Z M567.192,6.04 C570.36,6.04 573.024,7.024 575.184,8.992 C577.344,10.96 578.424,13.432 578.424,16.408 C578.424,19.384 577.344,21.856 575.184,23.824 C573.024,25.792 570.36,26.776 567.192,26.776 C564.024,26.776 561.408,25.744 559.344,23.68 C557.28,21.616 556.248,19.192 556.248,16.408 C556.248,13.624 557.28,11.2 559.344,9.136 C561.408,7.072 564.024,6.04 567.192,6.04 Z" id="Combined-Shape-Copy-20" fill="#000000" fill-rule="nonzero"></path>
            <path d="M609.128,109 L609.128,71.992 C609.128,71.032 609.344,69.592 609.776,67.672 C610.208,65.752 611.072,63.832 612.368,61.912 C613.664,59.992 615.536,58.288 617.984,56.8 C620.432,55.312 623.672,54.568 627.704,54.568 C629.048,54.568 630.416,54.688 631.808,54.928 C633.2,55.168 634.616,55.48 636.056,55.864 L636.056,55.864 L636.056,39.16 C635,38.872 633.968,38.632 632.96,38.44 C631.952,38.248 630.92,38.152 629.864,38.152 C625.256,38.152 621.176,39.256 617.624,41.464 C614.072,43.672 611.336,46.792 609.416,50.824 L609.416,50.824 L609.128,50.824 L609.128,39.88 L591.848,39.88 L591.848,109 L609.128,109 Z" id="Path-Copy-67" fill="#000000" fill-rule="nonzero"></path>
            <path d="M674.992,38.152 C679.792,38.152 684.184,38.992 688.168,40.672 C692.152,42.352 695.56,44.776 698.392,47.944 C701.224,51.112 703.432,55.024 705.016,59.68 C706.6,64.336 707.392,69.688 707.392,75.736 L707.392,75.736 L707.392,80.488 L654.688,80.488 L654.746219,80.970625 C655.391406,85.922875 657.388,89.794 660.736,92.584 C664.192,95.464 668.368,96.904 673.264,96.904 C677.584,96.904 681.208,96.016 684.136,94.24 C687.064,92.464 689.632,90.232 691.84,87.544 L691.84,87.544 L704.224,96.904 L703.805184,97.4152771 C699.880257,102.139253 695.507862,105.520828 690.688,107.56 C685.696,109.672 680.464,110.728 674.992,110.728 C669.808,110.728 664.912,109.864 660.304,108.136 C655.696,106.408 651.712,103.96 648.352,100.792 C644.992,97.624 642.328,93.808 640.36,89.344 C638.392,84.88 637.408,79.912 637.408,74.44 C637.408,68.968 638.392,64 640.36,59.536 C642.328,55.072 644.992,51.256 648.352,48.088 C651.712,44.92 655.696,42.472 660.304,40.744 C664.912,39.016 669.808,38.152 674.992,38.152 Z M672.544,51.112 C667.36,51.112 663.256,52.6 660.232,55.576 C657.208,58.552 655.36,62.536 654.688,67.528 L654.688,67.528 L690.112,67.528 C690.016,62.44 688.432,58.432 685.36,55.504 C682.288,52.576 678.016,51.112 672.544,51.112 Z" id="Combined-Shape-Copy-21" fill="#000000" fill-rule="nonzero"></path>
            <g id="Group-2">
                <path d="M28.9421158,0 L86.8263473,0 C102.810636,0 115.768463,12.9578266 115.768463,28.9421158 L115.768463,86.8263473 C115.768463,102.810636 102.810636,115.768463 86.8263473,115.768463 L28.9421158,115.768463 C12.9578266,115.768463 0,102.810636 0,86.8263473 L0,28.9421158 C0,12.9578266 12.9578266,0 28.9421158,0 Z" id="Rectangle-Copy-6" fill="#54B5FF"></path>
                <path d="M115.85838,29.0320326 L115.85838,86.9162641 C115.85838,102.900553 102.900553,115.85838 86.9162641,115.85838 L29.0320326,115.85838 C21.0400049,115.85838 13.8045708,112.619018 8.56709615,107.38166 L107.38166,8.56709615 C112.619018,13.8045708 115.85838,21.0400049 115.85838,29.0320326 Z" id="Path" fill="#016FC2"></path>
                <rect id="Rectangle-Copy-7" fill="#0091FF" x="28.9421158" y="28.9421158" width="57.8842315" height="57.8842315"></rect>
            </g>
        </g>
    </g>
</svg>