<?xml version="1.0" encoding="UTF-8"?>
<!--
==================================================
 Licensed Materials - Property of HCL Technologies

 HCL Commerce

 (C) Copyright HCL Technologies Limited 2020

==================================================
-->
<svg width="156px" height="30px" viewBox="0 0 156 30" version="1.1" xmlns="http://www.w3.org/2000/svg" xmlns:xlink="http://www.w3.org/1999/xlink">
    <!-- Generator: Sketch 64 (93537) - https://sketch.com -->
    <title>Emerald / Dark Copy 2</title>
    <desc>Created with Sketch.</desc>
    <g id="Emerald" stroke="none" stroke-width="1" fill="none" fill-rule="evenodd">
        <g id="Artboard" transform="translate(-54.000000, -193.000000)">
            <g id="Emerald-/-Normal" transform="translate(54.000000, 193.000000)">
                <polygon id="Path-Copy" fill="#009874" fill-rule="nonzero" points="55.4218182 26.3527273 55.4218182 21.64 44.1963636 21.64 44.1963636 16.9272727 54.2436364 16.9272727 54.2436364 12.2145455 44.1963636 12.2145455 44.1963636 7.89454545 54.8327273 7.89454545 54.8327273 3.18181818 39.0909091 3.18181818 39.0909091 26.3527273"></polygon>
                <path d="M61.9818182,26.3527273 L61.9818182,18.4327273 C61.9818182,17.9090909 62.0145455,17.4072727 62.08,16.9272727 C62.1454545,16.4472727 62.2818182,16.0163636 62.4890909,15.6345455 C62.6963636,15.2527273 62.9963636,14.9472727 63.3890909,14.7181818 C63.7818182,14.4890909 64.2945455,14.3745455 64.9272727,14.3745455 C65.4945455,14.3745455 65.9254545,14.5054545 66.22,14.7672727 C66.5145455,15.0290909 66.7272727,15.3454545 66.8581818,15.7163636 C66.9890909,16.0872727 67.0654545,16.48 67.0872727,16.8945455 C67.1090909,17.3090909 67.12,17.6581818 67.12,17.9418182 L67.12,17.9418182 L67.12,26.3527273 L72.0290909,26.3527273 L72.0290909,17.9418182 C72.0290909,17.4618182 72.0781818,17.0036364 72.1763636,16.5672727 C72.2745455,16.1309091 72.4381818,15.7490909 72.6672727,15.4218182 C72.8963636,15.0945455 73.2018182,14.8381818 73.5836364,14.6527273 C73.9654545,14.4672727 74.44,14.3745455 75.0072727,14.3745455 C75.8145455,14.3745455 76.3763636,14.6418182 76.6927273,15.1763636 C77.0090909,15.7109091 77.1672727,16.3490909 77.1672727,17.0909091 L77.1672727,17.0909091 L77.1672727,26.3527273 L82.0763636,26.3527273 L82.0763636,16.96 C82.0763636,16 81.9836364,15.1 81.7981818,14.26 C81.6127273,13.42 81.3072727,12.6890909 80.8818182,12.0672727 C80.4563636,11.4454545 79.8781818,10.9545455 79.1472727,10.5945455 C78.4163636,10.2345455 77.5163636,10.0545455 76.4472727,10.0545455 C75.2690909,10.0545455 74.2763636,10.2727273 73.4690909,10.7090909 C72.6618182,11.1454545 71.9745455,11.8763636 71.4072727,12.9018182 C70.9709091,11.92 70.3218182,11.2 69.46,10.7418182 C68.5981818,10.2836364 67.6109091,10.0545455 66.4981818,10.0545455 C65.9090909,10.0545455 65.3636364,10.1309091 64.8618182,10.2836364 C64.36,10.4363636 63.9127273,10.6327273 63.52,10.8727273 C63.1272727,11.1127273 62.7890909,11.3854545 62.5054545,11.6909091 C62.2218182,11.9963636 62.0036364,12.3018182 61.8509091,12.6072727 L61.8509091,12.6072727 L61.7854545,12.6072727 L61.7854545,10.4472727 L57.0727273,10.4472727 L57.0727273,26.3527273 L61.9818182,26.3527273 Z" id="Path-Copy-2" fill="#009874" fill-rule="nonzero"></path>
                <path d="M92.6854545,10.0345455 C93.82,10.0345455 94.8509091,10.2309091 95.7781818,10.6236364 C96.7054545,11.0163636 97.4909091,11.5781818 98.1345455,12.3090909 C98.7781818,13.04 99.2745455,13.9181818 99.6236364,14.9436364 C99.9727273,15.9690909 100.147273,17.1145455 100.147273,18.38 L100.147273,18.38 L100.147273,19.9181818 L88.7581818,19.9181818 L88.8174155,20.1693163 C89.0337941,20.9906536 89.4395041,21.6542149 90.0345455,22.16 C90.6890909,22.7163636 91.4963636,22.9945455 92.4563636,22.9945455 C93.2636364,22.9945455 93.9454545,22.8145455 94.5018182,22.4545455 C95.0581818,22.0945455 95.5436364,21.6309091 95.9581818,21.0636364 L95.9581818,21.0636364 L99.3945455,23.5836364 L99.1751916,23.8516754 C98.426882,24.7262059 97.5072727,25.411405 96.4163636,25.9072727 C95.2163636,26.4527273 93.9727273,26.7254545 92.6854545,26.7254545 C91.4636364,26.7254545 90.3127273,26.5290909 89.2327273,26.1363636 C88.1527273,25.7436364 87.2145455,25.1818182 86.4181818,24.4509091 C85.6218182,23.72 84.9945455,22.8418182 84.5363636,21.8163636 C84.0781818,20.7909091 83.8490909,19.6454545 83.8490909,18.38 C83.8490909,17.1145455 84.0781818,15.9690909 84.5363636,14.9436364 C84.9945455,13.9181818 85.6218182,13.04 86.4181818,12.3090909 C87.2145455,11.5781818 88.1527273,11.0163636 89.2327273,10.6236364 C90.3127273,10.2309091 91.4636364,10.0345455 92.6854545,10.0345455 Z M92.2272727,13.5690909 C91.6818182,13.5690909 91.2018182,13.6563636 90.7872727,13.8309091 C90.3727273,14.0054545 90.0181818,14.2290909 89.7236364,14.5018182 C89.4290909,14.7745455 89.2,15.0909091 89.0363636,15.4509091 C88.8727273,15.8109091 88.78,16.1872727 88.7581818,16.58 L88.7581818,16.58 L95.2381818,16.58 C95.26,15.7509091 94.9872727,15.0418182 94.42,14.4527273 C93.8527273,13.8636364 93.1218182,13.5690909 92.2272727,13.5690909 Z" id="Combined-Shape-Copy-50" fill="#009874" fill-rule="nonzero"></path>
                <path d="M106.898182,26.3327273 L106.898182,19.6890909 C106.898182,18.9036364 106.941818,18.1836364 107.029091,17.5290909 C107.116364,16.8745455 107.307273,16.3127273 107.601818,15.8436364 C107.896364,15.3745455 108.316364,15.0090909 108.861818,14.7472727 C109.407273,14.4854545 110.149091,14.3545455 111.087273,14.3545455 C111.458182,14.3545455 111.812727,14.3818182 112.150909,14.4363636 C112.489091,14.4909091 112.832727,14.5727273 113.181818,14.6818182 L113.181818,14.6818182 L113.181818,10.1981818 C112.941818,10.1327273 112.68,10.0890909 112.396364,10.0672727 C112.112727,10.0454545 111.829091,10.0345455 111.545455,10.0345455 C110.454545,10.0345455 109.549091,10.28 108.829091,10.7709091 C108.109091,11.2618182 107.487273,11.9981818 106.963636,12.98 L106.963636,12.98 L106.898182,12.98 L106.898182,10.4272727 L101.989091,10.4272727 L101.989091,26.3327273 L106.898182,26.3327273 Z" id="Path-Copy-14" fill="#009874" fill-rule="nonzero"></path>
                <path d="M121.405455,10.0345455 C122.845455,10.0345455 124.029091,10.2145455 124.956364,10.5745455 C125.883636,10.9345455 126.625455,11.4636364 127.181818,12.1618182 C127.738182,12.86 128.125455,13.7163636 128.343636,14.7309091 C128.561818,15.7454545 128.670909,16.9181818 128.670909,18.2490909 L128.670909,18.2490909 L128.670909,26.3327273 L124.154545,26.3327273 L124.154545,24.3363636 L124.089091,24.3363636 L123.935868,24.5624793 C123.410248,25.2963636 122.735868,25.8319008 121.912727,26.1690909 C121.007273,26.54 120.052727,26.7254545 119.049091,26.7254545 C118.307273,26.7254545 117.592727,26.6218182 116.905455,26.4145455 C116.218182,26.2072727 115.612727,25.8963636 115.089091,25.4818182 C114.565455,25.0672727 114.150909,24.5545455 113.845455,23.9436364 C113.54,23.3327273 113.387273,22.6236364 113.387273,21.8163636 C113.387273,20.9 113.556364,20.1254545 113.894545,19.4927273 C114.232727,18.86 114.690909,18.3363636 115.269091,17.9218182 C115.847273,17.5072727 116.507273,17.1854545 117.249091,16.9563636 C117.990909,16.7272727 118.76,16.5581818 119.556364,16.4490909 C120.352727,16.34 121.149091,16.2745455 121.945455,16.2527273 C122.741818,16.2309091 123.478182,16.22 124.154545,16.22 C124.154545,15.3472727 123.843636,14.6545455 123.221818,14.1418182 C122.6,13.6290909 121.863636,13.3727273 121.012727,13.3727273 C120.205455,13.3727273 119.469091,13.5418182 118.803636,13.88 C118.138182,14.2181818 117.543636,14.6818182 117.02,15.2709091 L117.02,15.2709091 L114.401818,12.5872727 L114.681309,12.3383818 C115.533527,11.6108545 116.509455,11.0556364 117.609091,10.6727273 C118.830909,10.2472727 120.096364,10.0345455 121.405455,10.0345455 Z M124.154545,19.3618182 L122.943636,19.3618182 L122.750455,19.3631818 C122.415606,19.3677273 122.016364,19.3836364 121.552727,19.4109091 C120.996364,19.4436364 120.461818,19.5363636 119.949091,19.6890909 C119.436364,19.8418182 119,20.0709091 118.64,20.3763636 C118.28,20.6818182 118.1,21.1072727 118.1,21.6527273 C118.1,22.2418182 118.350909,22.6781818 118.852727,22.9618182 C119.354545,23.2454545 119.878182,23.3872727 120.423636,23.3872727 C120.903636,23.3872727 121.367273,23.3218182 121.814545,23.1909091 C122.261818,23.06 122.66,22.8745455 123.009091,22.6345455 C123.358182,22.3945455 123.636364,22.0890909 123.843636,21.7181818 C124.050909,21.3472727 124.154545,20.9109091 124.154545,20.4090909 L124.154545,20.4090909 L124.154545,19.3618182 Z" id="Combined-Shape-Copy-51" fill="#009874" fill-rule="nonzero"></path>
                <polygon id="Path-Copy-15" fill="#009874" fill-rule="nonzero" points="136.04 26.3327273 136.04 1.59090909 131.130909 1.59090909 131.130909 26.3327273"></polygon>
                <path d="M155.129091,1.59090909 L155.129091,26.3327273 L150.612727,26.3327273 L150.612727,24.2381818 L150.547273,24.2381818 L150.422255,24.4090182 C150.245964,24.6376727 150.031273,24.8698182 149.778182,25.1054545 C149.461818,25.4 149.090909,25.6672727 148.665455,25.9072727 C148.24,26.1472727 147.770909,26.3436364 147.258182,26.4963636 C146.745455,26.6490909 146.216364,26.7254545 145.670909,26.7254545 C144.492727,26.7254545 143.423636,26.5236364 142.463636,26.12 C141.503636,25.7163636 140.68,25.1490909 139.992727,24.4181818 C139.305455,23.6872727 138.776364,22.82 138.405455,21.8163636 C138.034545,20.8127273 137.849091,19.7109091 137.849091,18.5109091 C137.849091,17.3981818 138.018182,16.3345455 138.356364,15.32 C138.694545,14.3054545 139.174545,13.4054545 139.796364,12.62 C140.418182,11.8345455 141.176364,11.2072727 142.070909,10.7381818 C142.965455,10.2690909 143.98,10.0345455 145.114545,10.0345455 C146.14,10.0345455 147.094545,10.1927273 147.978182,10.5090909 C148.861818,10.8254545 149.587273,11.3654545 150.154545,12.1290909 L150.154545,12.1290909 L150.22,12.1290909 L150.22,1.59090909 L155.129091,1.59090909 Z M146.685455,14.3545455 C145.441818,14.3545455 144.476364,14.7254545 143.789091,15.4672727 C143.101818,16.2090909 142.758182,17.18 142.758182,18.38 C142.758182,19.58 143.101818,20.5509091 143.789091,21.2927273 C144.476364,22.0345455 145.441818,22.4054545 146.685455,22.4054545 C147.929091,22.4054545 148.894545,22.0345455 149.581818,21.2927273 C150.269091,20.5509091 150.612727,19.58 150.612727,18.38 C150.612727,17.18 150.269091,16.2090909 149.581818,15.4672727 C148.894545,14.7254545 147.929091,14.3545455 146.685455,14.3545455 Z" id="Combined-Shape-Copy-52" fill="#009874" fill-rule="nonzero"></path>
                <g id="Emerald-/-Gemstone" fill-rule="evenodd" stroke-width="1">
                    <g id="Group">
                        <path d="M28.8818248,16.3342024 L16.3342024,28.8818248 C15.9010861,29.3149411 15.3334179,29.5314992 14.7657496,29.5314992 L14.7657496,14.7657496 L29.5314992,14.7657496 C29.5314992,15.3334179 29.3149411,15.9010861 28.8818248,16.3342024 Z" id="Path-Copy-3" fill="#007055"></path>
                        <path d="M16.3342024,0.649674421 L28.8818248,13.1972968 C29.3149411,13.6304131 29.5314992,14.1980813 29.5314992,14.7657496 L14.7657496,14.7657496 L14.7657496,1.61486985e-15 C15.3334179,1.61486985e-15 15.9010861,0.21655814 16.3342024,0.649674421 Z" id="Path-Copy-4" fill="#009874"></path>
                        <path d="M0.649674421,13.1972968 L13.1972968,0.649674421 C13.6304131,0.21655814 14.1980813,1.61486985e-15 14.7657496,1.61486985e-15 L14.7657496,14.7657496 L1.61486985e-15,14.7657496 C1.61486985e-15,14.1980813 0.21655814,13.6304131 0.649674421,13.1972968 Z" id="Path-Copy-5" fill="#1EC79F"></path>
                        <path d="M13.1972968,28.8818248 L0.649674421,16.3342024 C0.21655814,15.9010861 1.04966541e-13,15.3334179 1.04966541e-13,14.7657496 L14.7657496,14.7657496 L14.7657496,29.5314992 C14.1980813,29.5314992 13.6304131,29.3149411 13.1972968,28.8818248 Z" id="Path-Copy-6" fill="#009874"></path>
                    </g>
                </g>
            </g>
        </g>
    </g>
</svg>