<?xml version="1.0" encoding="UTF-8"?>
<!--
==================================================
 Licensed Materials - Property of HCL Technologies

 HCL Commerce

 (C) Copyright HCL Technologies Limited 2020

==================================================
-->
<svg width="135" height="32" version="1.1" xmlns="http://www.w3.org/2000/svg" xmlns:xlink="http://www.w3.org/1999/xlink">
    <!-- Generator: Sketch 47.1 (45422) - http://www.bohemiancoding.com/sketch -->
    <title>Artboard Copy</title>
    <desc>Created with Sketch.</desc>
    <defs></defs>
    <g id="Page-1" stroke="none" stroke-width="1" fill="none" fill-rule="evenodd">
        <g id="Artboard-Copy" fill="#212121">
			<path fill="#212121" stroke="#212121" d="M12.11 1.06Q16.47 1.06 18.88 3.36Q21.28 5.66 21.55 8.58L21.55 8.58L18.52 8.58Q18 6.36 16.46 5.06Q14.92 3.77 12.14 3.77L12.14 3.77Q8.75 3.77 6.66 6.15Q4.58 8.53 4.58 13.45L4.58 13.45Q4.58 17.48 6.46 19.99Q8.34 22.50 12.08 22.50L12.08 22.50Q15.52 22.50 17.31 19.86L17.31 19.86Q18.27 18.47 18.73 16.20L18.73 16.20L21.77 16.20Q21.36 19.83 19.08 22.28L19.08 22.28Q16.34 25.23 11.70 25.23L11.70 25.23Q7.70 25.23 4.98 22.81L4.98 22.81Q1.41 19.61 1.41 12.92L1.41 12.92Q1.41 7.84 4.09 4.59L4.09 4.59Q7 1.06 12.11 1.06L12.11 1.06ZM11.48 1.06L11.48 1.06ZM27.36 20.19Q27.36 21.41 28.25 22.11Q29.14 22.81 30.36 22.81L30.36 22.81Q31.84 22.81 33.24 22.13L33.24 22.13Q35.58 20.98 35.58 18.39L35.58 18.39L35.58 16.13Q35.06 16.45 34.25 16.67Q33.44 16.89 32.66 16.98L32.66 16.98L30.95 17.20Q29.42 17.41 28.66 17.84L28.66 17.84Q27.36 18.58 27.36 20.19L27.36 20.19ZM29.69 15.06L34.17 14.50Q35.14 14.38 35.47 13.69L35.47 13.69Q35.66 13.31 35.66 12.61L35.66 12.61Q35.66 11.17 34.63 10.52Q33.61 9.88 31.70 9.88L31.70 9.88Q29.50 9.88 28.58 11.06L28.58 11.06Q28.06 11.72 27.91 13.02L27.91 13.02L25.28 13.02Q25.36 9.92 27.29 8.71Q29.22 7.50 31.77 7.50L31.77 7.50Q34.72 7.50 36.56 8.63L36.56 8.63Q38.39 9.75 38.39 12.13L38.39 12.13L38.39 21.77Q38.39 22.20 38.57 22.47Q38.75 22.73 39.33 22.73L39.33 22.73Q39.52 22.73 39.75 22.71Q39.99 22.69 40.25 22.64L40.25 22.64L40.25 24.72Q39.59 24.91 39.25 24.95Q38.91 25 38.31 25L38.31 25Q36.86 25 36.20 23.97L36.20 23.97Q35.86 23.42 35.72 22.42L35.72 22.42Q34.86 23.55 33.25 24.38Q31.64 25.20 29.70 25.20L29.70 25.20Q27.38 25.20 25.90 23.79Q24.42 22.38 24.42 20.25L24.42 20.25Q24.42 17.92 25.88 16.64Q27.33 15.36 29.69 15.06L29.69 15.06ZM31.84 7.50L31.84 7.50ZM42.00 19.39L44.70 19.39Q44.83 20.80 45.41 21.55L45.41 21.55Q46.47 22.91 49.10 22.91L49.10 22.91Q50.66 22.91 51.85 22.23Q53.03 21.55 53.03 20.13L53.03 20.13Q53.03 19.05 52.08 18.48L52.08 18.48Q51.47 18.14 49.67 17.69L49.67 17.69L47.44 17.13Q45.30 16.59 44.28 15.94L44.28 15.94Q42.47 14.80 42.47 12.78L42.47 12.78Q42.47 10.41 44.18 8.94Q45.89 7.47 48.78 7.47L48.78 7.47Q52.56 7.47 54.24 9.69L54.24 9.69Q55.28 11.09 55.25 12.72L55.25 12.72L52.60 12.72Q52.52 11.77 51.92 10.98L51.92 10.98Q50.95 9.88 48.56 9.88L48.56 9.88Q46.97 9.88 46.15 10.48Q45.33 11.09 45.33 12.09L45.33 12.09Q45.33 13.19 46.41 13.84L46.41 13.84Q47.03 14.23 48.25 14.53L48.25 14.53L50.11 14.98Q53.14 15.72 54.17 16.41L54.17 16.41Q55.81 17.48 55.81 19.80L55.81 19.80Q55.81 22.03 54.12 23.66Q52.42 25.28 48.95 25.28L48.95 25.28Q45.22 25.28 43.67 23.59Q42.11 21.89 42.00 19.39L42.00 19.39ZM48.86 7.50L48.86 7.50ZM59.63 7.91L59.63 3.23L62.47 3.23L62.47 7.91L65.14 7.91L65.14 10.20L62.47 10.20L62.47 21.13Q62.47 22 63.06 22.30L63.06 22.30Q63.39 22.47 64.16 22.47L64.16 22.47Q64.36 22.47 64.60 22.46Q64.83 22.45 65.14 22.42L65.14 22.42L65.14 24.64Q64.66 24.78 64.14 24.84Q63.61 24.91 63.00 24.91L63.00 24.91Q61.03 24.91 60.33 23.90Q59.63 22.89 59.63 21.28L59.63 21.28L59.63 10.20L57.36 10.20L57.36 7.91L59.63 7.91ZM74.96 7.53Q76.74 7.53 78.41 8.37Q80.08 9.20 80.96 10.53L80.96 10.53Q81.80 11.80 82.08 13.48L82.08 13.48Q82.33 14.64 82.33 17.17L82.33 17.17L70.07 17.17Q70.14 19.72 71.27 21.26Q72.39 22.80 74.75 22.80L74.75 22.80Q76.96 22.80 78.27 21.34L78.27 21.34Q79.02 20.50 79.33 19.39L79.33 19.39L82.10 19.39Q81.99 20.31 81.37 21.45Q80.75 22.58 79.99 23.30L79.99 23.30Q78.71 24.55 76.82 24.98L76.82 24.98Q75.80 25.23 74.52 25.23L74.52 25.23Q71.39 25.23 69.22 22.96Q67.05 20.69 67.05 16.59L67.05 16.59Q67.05 12.56 69.24 10.05Q71.42 7.53 74.96 7.53L74.96 7.53ZM70.14 14.94L79.44 14.94Q79.27 13.11 78.64 12.02L78.64 12.02Q77.49 9.98 74.78 9.98L74.78 9.98Q72.85 9.98 71.53 11.38Q70.22 12.78 70.14 14.94L70.14 14.94ZM74.69 7.50L74.69 7.50ZM85.89 24.64L85.89 1.69L88.71 1.69L88.71 24.64L85.89 24.64ZM93.04 24.64L93.04 1.69L95.85 1.69L95.85 24.64L93.04 24.64ZM102.26 20.19Q102.26 21.41 103.15 22.11Q104.04 22.81 105.26 22.81L105.26 22.81Q106.74 22.81 108.13 22.13L108.13 22.13Q110.47 20.98 110.47 18.39L110.47 18.39L110.47 16.13Q109.96 16.45 109.15 16.67Q108.33 16.89 107.55 16.98L107.55 16.98L105.85 17.20Q104.32 17.41 103.55 17.84L103.55 17.84Q102.26 18.58 102.26 20.19L102.26 20.19ZM104.58 15.06L109.07 14.50Q110.04 14.38 110.36 13.69L110.36 13.69Q110.55 13.31 110.55 12.61L110.55 12.61Q110.55 11.17 109.53 10.52Q108.51 9.88 106.60 9.88L106.60 9.88Q104.40 9.88 103.47 11.06L103.47 11.06Q102.96 11.72 102.80 13.02L102.80 13.02L100.18 13.02Q100.26 9.92 102.18 8.71Q104.11 7.50 106.66 7.50L106.66 7.50Q109.61 7.50 111.46 8.63L111.46 8.63Q113.29 9.75 113.29 12.13L113.29 12.13L113.29 21.77Q113.29 22.20 113.47 22.47Q113.65 22.73 114.22 22.73L114.22 22.73Q114.41 22.73 114.65 22.71Q114.88 22.69 115.15 22.64L115.15 22.64L115.15 24.72Q114.49 24.91 114.15 24.95Q113.80 25 113.21 25L113.21 25Q111.76 25 111.10 23.97L111.10 23.97Q110.76 23.42 110.61 22.42L110.61 22.42Q109.76 23.55 108.15 24.38Q106.54 25.20 104.60 25.20L104.60 25.20Q102.27 25.20 100.79 23.79Q99.32 22.38 99.32 20.25L99.32 20.25Q99.32 17.92 100.77 16.64Q102.22 15.36 104.58 15.06L104.58 15.06ZM106.74 7.50L106.74 7.50Z"/>
			<circle id="Oval-4" cx="125" cy="4" r="4"></circle>
        </g>
    </g>
</svg>

