<svg width="507" height="93" viewBox="0 0 507 93" fill="none" xmlns="http://www.w3.org/2000/svg">
<path d="M22.5821 73.1657C25.8489 73.1657 28.9587 72.726 31.9114 71.8464C34.8641 70.9669 37.4555 69.6476 39.6857 67.8886C41.9159 66.1295 43.6907 63.915 45.01 61.245C46.3293 58.5751 46.9889 55.4496 46.9889 51.8687C46.9889 47.9108 46.2036 44.7383 44.633 42.351C43.0625 39.9637 41.1149 38.0476 38.7905 36.6027C36.466 35.1578 33.9217 34.0269 31.1575 33.2102C28.3933 32.3935 25.8489 31.5454 23.5245 30.6659C21.2 29.7864 19.2525 28.7498 17.6819 27.5562C16.1114 26.3625 15.3261 24.6349 15.3261 22.3733C15.3261 20.8655 15.6402 19.5619 16.2684 18.4625C16.8967 17.3631 17.7291 16.4679 18.7656 15.7768C19.8022 15.0858 20.9645 14.5832 22.2523 14.2691C23.5402 13.955 24.8752 13.7979 26.2573 13.7979C28.5817 13.7979 30.7963 14.222 32.9008 15.0701C35.0054 15.9182 36.6859 17.2532 37.9424 19.0751L46.612 9.9343C43.9734 7.4842 41.005 5.72516 37.7068 4.65716C34.4086 3.58917 31.0004 3.05518 27.4823 3.05518C24.404 3.05518 21.3885 3.46353 18.4358 4.28023C15.4831 5.09693 12.8603 6.33768 10.5672 8.00249C8.2742 9.6673 6.42092 11.7562 5.0074 14.2691C3.59388 16.782 2.88712 19.7661 2.88712 23.2214C2.88712 27.1792 3.67241 30.3361 5.24299 32.692C6.81356 35.0478 8.76108 36.9325 11.0855 38.346C13.41 39.7596 15.9543 40.8747 18.7185 41.6914C21.4827 42.5081 24.0271 43.3719 26.3515 44.2828C28.676 45.1937 30.6235 46.3089 32.1941 47.6281C33.7646 48.9474 34.5499 50.8321 34.5499 53.2822C34.5499 54.79 34.2044 56.125 33.5134 57.2872C32.8223 58.4494 31.9114 59.4075 30.7806 60.1613C29.6497 60.9152 28.3933 61.4806 27.0112 61.8576C25.6291 62.2345 24.247 62.423 22.8649 62.423C20.2263 62.423 17.7291 61.8104 15.3732 60.5854C13.0173 59.3603 11.1169 57.6484 9.67201 55.4496L0.719727 64.1192C3.48394 67.386 6.78215 69.7104 10.6144 71.0926C14.4466 72.4747 18.4358 73.1657 22.5821 73.1657Z" fill="#43484C"/>
<path fill-rule="evenodd" clip-rule="evenodd" d="M77.4478 70.8603C74.9348 72.0225 72.1706 72.6036 69.1551 72.6036C67.082 72.6036 65.0559 72.3209 63.077 71.7555C61.0981 71.1901 59.339 70.342 57.7998 69.2112C56.2607 68.0803 55.0199 66.6668 54.0776 64.9706C53.1352 63.2744 52.6641 61.2955 52.6641 59.0338C52.6641 56.5837 53.1038 54.4949 53.9833 52.7672C54.8629 51.0396 56.0408 49.5947 57.5171 48.4324C58.9935 47.2702 60.7054 46.3436 62.6529 45.6525C64.6004 44.9615 66.6265 44.4432 68.7311 44.0976C70.8356 43.7521 72.9559 43.5322 75.0919 43.438C77.2279 43.3438 79.2382 43.2966 81.1229 43.2966H83.9499V42.0716C83.9499 39.2446 82.9762 37.1243 81.0287 35.7108C79.0812 34.2972 76.5996 33.5905 73.5841 33.5905C71.1969 33.5905 68.9666 34.0145 66.8935 34.8627C64.8203 35.7108 63.0299 36.8573 61.5221 38.3022L55.5853 32.3654C58.0983 29.7897 61.0352 27.9364 64.3963 26.8056C67.7573 25.6748 71.2283 25.1094 74.8092 25.1094C78.0132 25.1094 80.7146 25.4706 82.9134 26.1931C85.1122 26.9155 86.934 27.8422 88.379 28.973C89.8239 30.1038 90.939 31.4074 91.7243 32.8837C92.5096 34.3601 93.075 35.8521 93.4205 37.3599C93.766 38.8676 93.9702 40.3283 94.033 41.7418C94.0959 43.1553 94.1273 44.3961 94.1273 45.464V71.4728H83.9499V65.2533H83.6672C82.0338 67.8291 79.9607 69.698 77.4478 70.8603ZM69.0606 63.7884C70.0029 64.0083 70.9452 64.1182 71.8876 64.1182C75.7826 64.1182 78.6568 63.1916 80.5101 61.3383C82.3633 59.485 83.29 56.9564 83.29 53.7524V51.2081H80.9341C79.3635 51.2081 77.6045 51.2709 75.657 51.3965C73.7095 51.5222 71.8719 51.8206 70.1443 52.2918C68.4166 52.7629 66.956 53.454 65.7623 54.3649C64.5687 55.2759 63.9719 56.548 63.9719 58.1814C63.9719 59.2494 64.2075 60.1447 64.6786 60.8671C65.1498 61.5896 65.7623 62.2021 66.5162 62.7047C67.2701 63.2073 68.1182 63.5685 69.0606 63.7884Z" fill="#43484C"/>
<path fill-rule="evenodd" clip-rule="evenodd" d="M116.273 65.7245V92.9582H104.965V26.2402H115.708V33.0251H115.896C117.529 30.2609 119.728 28.2505 122.492 26.9941C125.257 25.7376 128.241 25.1094 131.445 25.1094C134.9 25.1094 138.01 25.7219 140.774 26.9469C143.538 28.172 145.894 29.8525 147.842 31.9885C149.789 34.1245 151.265 36.6374 152.271 39.5273C153.276 42.4171 153.778 45.5269 153.778 48.8565C153.778 52.1861 153.244 55.2958 152.176 58.1857C151.108 61.0756 149.616 63.5885 147.7 65.7245C145.784 67.8604 143.475 69.541 140.774 70.766C138.073 71.9911 135.12 72.6036 131.916 72.6036C129.78 72.6036 127.895 72.3837 126.262 71.9439C124.628 71.5042 123.184 70.9388 121.927 70.2477C120.671 69.5567 119.603 68.8185 118.723 68.0332C117.844 67.2479 117.121 66.4783 116.556 65.7245H116.273ZM123.624 61.2951C125.258 62.049 127.111 62.4259 129.184 62.4259C131.257 62.4259 133.11 62.049 134.744 61.2951C136.377 60.5412 137.775 59.536 138.937 58.2796C140.099 57.0231 140.979 55.5782 141.576 53.9448C142.173 52.3114 142.471 50.6152 142.471 48.8561C142.471 47.0971 142.173 45.4008 141.576 43.7674C140.979 42.134 140.099 40.6891 138.937 39.4327C137.775 38.1762 136.377 37.171 134.744 36.4172C133.11 35.6633 131.257 35.2863 129.184 35.2863C127.111 35.2863 125.258 35.6633 123.624 36.4172C121.991 37.171 120.593 38.1762 119.431 39.4327C118.268 40.6891 117.389 42.134 116.792 43.7674C116.195 45.4008 115.897 47.0971 115.897 48.8561C115.897 50.6152 116.195 52.3114 116.792 53.9448C117.389 55.5782 118.268 57.0231 119.431 58.2796C120.593 59.536 121.991 60.5412 123.624 61.2951Z" fill="#43484C"/>
<path fill-rule="evenodd" clip-rule="evenodd" d="M173.036 65.7245V92.9582H161.728V26.2402H172.47V33.0251H172.659C174.292 30.2609 176.491 28.2505 179.255 26.9941C182.019 25.7376 185.003 25.1094 188.207 25.1094C191.663 25.1094 194.772 25.7219 197.537 26.9469C200.301 28.172 202.657 29.8525 204.604 31.9885C206.552 34.1245 208.028 36.6374 209.033 39.5273C210.038 42.4171 210.541 45.5269 210.541 48.8565C210.541 52.1861 210.007 55.2958 208.939 58.1857C207.871 61.0756 206.379 63.5885 204.463 65.7245C202.547 67.8604 200.238 69.541 197.537 70.766C194.835 71.9911 191.883 72.6036 188.679 72.6036C186.543 72.6036 184.658 72.3837 183.025 71.9439C181.391 71.5042 179.946 70.9388 178.69 70.2477C177.433 69.5567 176.365 68.8185 175.486 68.0332C174.606 67.2479 173.884 66.4783 173.318 65.7245H173.036ZM180.375 61.295C182.009 62.0489 183.862 62.4258 185.935 62.4258C188.008 62.4258 189.861 62.0489 191.495 61.295C193.128 60.5411 194.526 59.536 195.688 58.2795C196.85 57.023 197.73 55.5781 198.327 53.9447C198.924 52.3113 199.222 50.6151 199.222 48.856C199.222 47.097 198.924 45.4008 198.327 43.7674C197.73 42.134 196.85 40.6891 195.688 39.4326C194.526 38.1761 193.128 37.171 191.495 36.4171C189.861 35.6632 188.008 35.2863 185.935 35.2863C183.862 35.2863 182.009 35.6632 180.375 36.4171C178.742 37.171 177.344 38.1761 176.182 39.4326C175.019 40.6891 174.14 42.134 173.543 43.7674C172.946 45.4008 172.648 47.097 172.648 48.856C172.648 50.6151 172.946 52.3113 173.543 53.9447C174.14 55.5781 175.019 57.023 176.182 58.2795C177.344 59.536 178.742 60.5411 180.375 61.295Z" fill="#43484C"/>
<path d="M229.783 71.4703V46.7809C229.783 45.2731 229.971 43.8282 230.348 42.4461C230.725 41.064 231.338 39.8389 232.186 38.7709C233.034 37.7029 234.102 36.8548 235.39 36.2266C236.678 35.5984 238.264 35.2843 240.149 35.2843C242.096 35.2843 243.635 35.7397 244.766 36.6507C245.897 37.5616 246.729 38.6924 247.263 40.0431C247.797 41.3938 248.127 42.8387 248.253 44.3779C248.378 45.9171 248.441 47.3149 248.441 48.5713V71.4703H259.749V42.9173C259.749 40.5928 259.467 38.3626 258.901 36.2266C258.336 34.0906 257.393 32.2059 256.074 30.5725C254.755 28.9391 253.043 27.6198 250.938 26.6147C248.834 25.6095 246.274 25.1069 243.258 25.1069C239.74 25.1069 236.866 25.8765 234.636 27.4157C232.406 28.9548 230.851 30.6668 229.971 32.5515H229.783V0.229004H218.475V71.4703H229.783Z" fill="#43484C"/>
<path fill-rule="evenodd" clip-rule="evenodd" d="M280.27 15.7332C278.856 17.0211 277.113 17.665 275.04 17.665C272.967 17.665 271.255 16.9896 269.904 15.6389C268.553 14.2883 267.878 12.702 267.878 10.8801C267.878 9.05824 268.553 7.47195 269.904 6.12126C271.255 4.77056 272.967 4.09521 275.04 4.09521C277.113 4.09521 278.856 4.73915 280.27 6.02702C281.683 7.3149 282.39 8.93259 282.39 10.8801C282.39 12.8276 281.683 14.4453 280.27 15.7332ZM280.789 26.2412V71.4738H269.481V26.2412H280.789Z" fill="#43484C"/>
<path d="M302.482 71.4728V47.2545C302.482 46.6263 302.623 45.6839 302.906 44.4275C303.189 43.171 303.754 41.9145 304.602 40.6581C305.45 39.4016 306.675 38.2865 308.277 37.3127C309.879 36.339 312 35.8521 314.638 35.8521C315.518 35.8521 316.413 35.9306 317.324 36.0877C318.235 36.2448 319.161 36.4489 320.104 36.7002V25.769C319.413 25.5805 318.737 25.4235 318.078 25.2978C317.418 25.1722 316.743 25.1094 316.052 25.1094C313.036 25.1094 310.366 25.8318 308.042 27.2768C305.717 28.7217 303.927 30.7634 302.67 33.402H302.482V26.2402H291.174V71.4728H302.482Z" fill="#43484C"/>
<path fill-rule="evenodd" clip-rule="evenodd" d="M355.861 70.5304C352.594 71.9126 349.17 72.6036 345.589 72.6036C342.197 72.6036 338.993 72.0382 335.977 70.9074C332.962 69.7766 330.355 68.1746 328.156 66.1014C325.957 64.0283 324.214 61.531 322.926 58.6098C321.638 55.6885 320.994 52.4374 320.994 48.8565C320.994 45.2756 321.638 42.0245 322.926 39.1032C324.214 36.1819 325.957 33.6847 328.156 31.6116C330.355 29.5384 332.962 27.9364 335.977 26.8056C338.993 25.6748 342.197 25.1094 345.589 25.1094C348.731 25.1094 351.605 25.6591 354.212 26.7585C356.819 27.8579 359.049 29.4442 360.902 31.5173C362.756 33.5905 364.201 36.1505 365.237 39.1974C366.274 42.2444 366.792 45.7467 366.792 49.7046V52.8143H332.302C332.679 56.2068 333.999 58.8454 336.26 60.73C338.522 62.6147 341.255 63.5571 344.459 63.5571C347.286 63.5571 349.657 62.976 351.573 61.8137C353.489 60.6515 355.17 59.1909 356.615 57.4318L364.719 63.5571C362.08 66.8239 359.128 69.1483 355.861 70.5304ZM332.302 44.333H355.484C355.421 41.0034 354.384 38.3805 352.374 36.4644C350.364 34.5483 347.568 33.5902 343.987 33.5902C340.595 33.5902 337.909 34.564 335.93 36.5115C333.951 38.459 332.742 41.0662 332.302 44.333Z" fill="#43484C"/>
<path d="M378.792 3.23486H390.999L414.435 57.4325H414.631L438.263 3.23486H450.177V72.3734H441.974V14.3673H441.778L416.974 72.3734H411.994L387.19 14.3673H386.995V72.3734H378.792V3.23486Z" fill="#2B6FBC"/>
<path d="M462.201 3.23486H482.708C485.898 3.23486 488.926 3.56037 491.79 4.2114C494.72 4.79732 497.291 5.83895 499.505 7.3363C501.783 8.76855 503.574 10.7216 504.876 13.1955C506.243 15.6043 506.926 18.599 506.926 22.1796C506.926 25.9555 506.21 29.0805 504.778 31.5543C503.346 34.0282 501.49 35.9813 499.212 37.4135C496.998 38.8458 494.557 39.8549 491.888 40.4408C489.219 41.0267 486.68 41.3197 484.271 41.3197H470.404V72.3734H462.201V3.23486ZM470.404 33.7027H484.271C488.372 33.7027 491.692 32.7913 494.231 30.9684C496.836 29.0805 498.138 26.1834 498.138 22.2773C498.138 18.3711 496.836 15.5066 494.231 13.6838C491.692 11.7958 488.372 10.8518 484.271 10.8518H470.404V33.7027Z" fill="#2B6FBC"/>
</svg>
