<svg width="507" height="93" viewBox="0 0 507 93" fill="none" xmlns="http://www.w3.org/2000/svg">
<path d="M22.1935 73.2072C25.4603 73.2072 28.57 72.7675 31.5227 71.8879C34.4754 71.0084 37.0668 69.6891 39.297 67.9301C41.5273 66.171 43.302 63.9565 44.6213 61.2865C45.9406 58.6166 46.6002 55.4911 46.6002 51.9102C46.6002 47.9523 45.8149 44.7798 44.2444 42.3925C42.6738 40.0052 40.7263 38.0891 38.4018 36.6442C36.0774 35.1993 33.533 34.0685 30.7688 33.2518C28.0046 32.4351 25.4603 31.5869 23.1358 30.7074C20.8114 29.8279 18.8639 28.7913 17.2933 27.5977C15.7227 26.404 14.9374 24.6764 14.9374 22.4148C14.9374 20.907 15.2515 19.6034 15.8798 18.504C16.508 17.4046 17.3404 16.5094 18.377 15.8183C19.4136 15.1273 20.5758 14.6247 21.8637 14.3106C23.1515 13.9965 24.4865 13.8394 25.8686 13.8394C28.1931 13.8394 30.4076 14.2635 32.5122 15.1116C34.6167 15.9597 36.2972 17.2947 37.5537 19.1166L46.2233 9.97581C43.5847 7.52571 40.6163 5.76666 37.3181 4.69867C34.0199 3.63068 30.6118 3.09668 27.0937 3.09668C24.0153 3.09668 20.9998 3.50503 18.0472 4.32173C15.0945 5.13843 12.4716 6.37918 10.1786 8.044C7.88553 9.70881 6.03225 11.7977 4.61873 14.3106C3.20521 16.8235 2.49845 19.8076 2.49845 23.2629C2.49845 27.2207 3.28374 30.3776 4.85431 32.7335C6.42489 35.0893 8.37241 36.974 10.6969 38.3875C13.0213 39.8011 15.5656 40.9162 18.3299 41.7329C21.0941 42.5496 23.6384 43.4134 25.9629 44.3243C28.2873 45.2352 30.2348 46.3504 31.8054 47.6696C33.376 48.9889 34.1613 50.8736 34.1613 53.3237C34.1613 54.8315 33.8157 56.1665 33.1247 57.3287C32.4336 58.4909 31.5227 59.449 30.3919 60.2028C29.2611 60.9567 28.0046 61.5221 26.6225 61.8991C25.2404 62.276 23.8583 62.4645 22.4762 62.4645C19.8376 62.4645 17.3404 61.852 14.9845 60.6269C12.6287 59.4019 10.7283 57.6899 9.28334 55.4911L0.331055 64.1607C3.09527 67.4275 6.39348 69.752 10.2257 71.1341C14.0579 72.5162 18.0472 73.2072 22.1935 73.2072Z" fill="white"/>
<path fill-rule="evenodd" clip-rule="evenodd" d="M77.0591 70.9023C74.5462 72.0645 71.7819 72.6456 68.7664 72.6456C66.6933 72.6456 64.6672 72.3629 62.6883 71.7975C60.7094 71.2321 58.9503 70.384 57.4112 69.2532C55.872 68.1223 54.6313 66.7088 53.6889 65.0126C52.7466 63.3164 52.2754 61.3374 52.2754 59.0758C52.2754 56.6257 52.7152 54.5369 53.5947 52.8092C54.4742 51.0816 55.6521 49.6367 57.1285 48.4744C58.6048 47.3122 60.3167 46.3856 62.2643 45.6945C64.2118 45.0035 66.2378 44.4852 68.3424 44.1396C70.447 43.7941 72.5672 43.5742 74.7032 43.48C76.8392 43.3858 78.8495 43.3386 80.7342 43.3386H83.5613V42.1136C83.5613 39.2866 82.5875 37.1663 80.64 35.7528C78.6925 34.3392 76.211 33.6325 73.1955 33.6325C70.8082 33.6325 68.578 34.0565 66.5048 34.9046C64.4316 35.7528 62.6412 36.8993 61.1334 38.3442L55.1967 32.4074C57.7096 29.8317 60.6466 27.9784 64.0076 26.8476C67.3686 25.7168 70.8396 25.1514 74.4205 25.1514C77.6245 25.1514 80.3259 25.5126 82.5247 26.2351C84.7235 26.9575 86.5454 27.8842 87.9903 29.015C89.4352 30.1458 90.5503 31.4494 91.3356 32.9257C92.1209 34.4021 92.6863 35.8941 93.0318 37.4019C93.3774 38.9096 93.5815 40.3703 93.6444 41.7838C93.7072 43.1973 93.7386 44.438 93.7386 45.506V71.5148H83.5613V65.2953H83.2786C81.6452 67.871 79.572 69.74 77.0591 70.9023ZM68.6719 63.8304C69.6142 64.0503 70.5566 64.1602 71.4989 64.1602C75.3939 64.1602 78.2681 63.2336 80.1214 61.3803C81.9747 59.527 82.9013 56.9984 82.9013 53.7944V51.2501H80.5454C78.9749 51.2501 77.2158 51.3129 75.2683 51.4385C73.3208 51.5642 71.4832 51.8626 69.7556 52.3338C68.0279 52.8049 66.5673 53.496 65.3737 54.4069C64.18 55.3179 63.5832 56.59 63.5832 58.2234C63.5832 59.2914 63.8188 60.1866 64.29 60.9091C64.7611 61.6316 65.3737 62.2441 66.1275 62.7467C66.8814 63.2493 67.7295 63.6105 68.6719 63.8304Z" fill="white"/>
<path fill-rule="evenodd" clip-rule="evenodd" d="M115.884 65.7665V93.0002H104.576V26.2822H115.319V33.0671H115.507C117.141 30.3029 119.34 28.2925 122.104 27.0361C124.868 25.7796 127.852 25.1514 131.056 25.1514C134.511 25.1514 137.621 25.7639 140.385 26.9889C143.15 28.214 145.505 29.8945 147.453 32.0305C149.4 34.1665 150.877 36.6794 151.882 39.5693C152.887 42.4591 153.39 45.5688 153.39 48.8985C153.39 52.2281 152.856 55.3378 151.788 58.2277C150.72 61.1175 149.228 63.6305 147.312 65.7665C145.395 67.9024 143.087 69.583 140.385 70.808C137.684 72.0331 134.731 72.6456 131.527 72.6456C129.391 72.6456 127.507 72.4257 125.873 71.9859C124.24 71.5462 122.795 70.9808 121.538 70.2897C120.282 69.5987 119.214 68.8605 118.334 68.0752C117.455 67.2899 116.732 66.5203 116.167 65.7665H115.884ZM123.235 61.3378C124.869 62.0917 126.722 62.4686 128.795 62.4686C130.868 62.4686 132.722 62.0917 134.355 61.3378C135.989 60.5839 137.386 59.5788 138.549 58.3223C139.711 57.0658 140.59 55.6209 141.187 53.9875C141.784 52.3541 142.082 50.6579 142.082 48.8988C142.082 47.1398 141.784 45.4436 141.187 43.8102C140.59 42.1768 139.711 40.7318 138.549 39.4754C137.386 38.2189 135.989 37.2138 134.355 36.4599C132.722 35.706 130.868 35.3291 128.795 35.3291C126.722 35.3291 124.869 35.706 123.235 36.4599C121.602 37.2138 120.204 38.2189 119.042 39.4754C117.88 40.7318 117 42.1768 116.403 43.8102C115.807 45.4436 115.508 47.1398 115.508 48.8988C115.508 50.6579 115.807 52.3541 116.403 53.9875C117 55.6209 117.88 57.0658 119.042 58.3223C120.204 59.5788 121.602 60.5839 123.235 61.3378Z" fill="white"/>
<path fill-rule="evenodd" clip-rule="evenodd" d="M172.647 65.7665V93.0002H161.339V26.2822H172.082V33.0671H172.27C173.903 30.3029 176.102 28.2925 178.866 27.0361C181.631 25.7796 184.615 25.1514 187.819 25.1514C191.274 25.1514 194.384 25.7639 197.148 26.9889C199.912 28.214 202.268 29.8945 204.216 32.0305C206.163 34.1665 207.639 36.6794 208.645 39.5693C209.65 42.4591 210.152 45.5688 210.152 48.8985C210.152 52.2281 209.618 55.3378 208.55 58.2277C207.482 61.1175 205.99 63.6305 204.074 65.7665C202.158 67.9024 199.849 69.583 197.148 70.808C194.447 72.0331 191.494 72.6456 188.29 72.6456C186.154 72.6456 184.269 72.4257 182.636 71.9859C181.002 71.5462 179.558 70.9808 178.301 70.2897C177.045 69.5987 175.977 68.8605 175.097 68.0752C174.218 67.2899 173.495 66.5203 172.93 65.7665H172.647ZM179.986 61.3377C181.62 62.0916 183.473 62.4685 185.546 62.4685C187.619 62.4685 189.473 62.0916 191.106 61.3377C192.74 60.5839 194.137 59.5787 195.3 58.3222C196.462 57.0658 197.341 55.6208 197.938 53.9874C198.535 52.354 198.833 50.6578 198.833 48.8988C198.833 47.1397 198.535 45.4435 197.938 43.8101C197.341 42.1767 196.462 40.7318 195.3 39.4753C194.137 38.2189 192.74 37.2137 191.106 36.4598C189.473 35.7059 187.619 35.329 185.546 35.329C183.473 35.329 181.62 35.7059 179.986 36.4598C178.353 37.2137 176.955 38.2189 175.793 39.4753C174.631 40.7318 173.751 42.1767 173.154 43.8101C172.558 45.4435 172.259 47.1397 172.259 48.8988C172.259 50.6578 172.558 52.354 173.154 53.9874C173.751 55.6208 174.631 57.0658 175.793 58.3222C176.955 59.5787 178.353 60.5839 179.986 61.3377Z" fill="white"/>
<path d="M229.394 71.5123V46.8229C229.394 45.3151 229.583 43.8702 229.959 42.4881C230.336 41.106 230.949 39.8809 231.797 38.8129C232.645 37.7449 233.713 36.8968 235.001 36.2686C236.289 35.6404 237.875 35.3263 239.76 35.3263C241.707 35.3263 243.247 35.7817 244.377 36.6927C245.508 37.6036 246.341 38.7344 246.875 40.0851C247.409 41.4358 247.738 42.8807 247.864 44.4199C247.99 45.959 248.053 47.3569 248.053 48.6133V71.5123H259.361V42.9593C259.361 40.6348 259.078 38.4046 258.513 36.2686C257.947 34.1326 257.005 32.2479 255.686 30.6145C254.366 28.9811 252.654 27.6618 250.55 26.6567C248.445 25.6515 245.885 25.1489 242.87 25.1489C239.352 25.1489 236.477 25.9185 234.247 27.4577C232.017 28.9968 230.462 30.7088 229.583 32.5934H229.394V0.270996H218.086V71.5123H229.394Z" fill="white"/>
<path fill-rule="evenodd" clip-rule="evenodd" d="M279.881 15.7752C278.468 17.063 276.724 17.707 274.651 17.707C272.578 17.707 270.866 17.0316 269.515 15.6809C268.165 14.3302 267.489 12.744 267.489 10.9221C267.489 9.10023 268.165 7.51395 269.515 6.16325C270.866 4.81255 272.578 4.13721 274.651 4.13721C276.724 4.13721 278.468 4.78114 279.881 6.06902C281.295 7.35689 282.001 8.97458 282.001 10.9221C282.001 12.8696 281.295 14.4873 279.881 15.7752ZM280.4 26.2832V71.5157H269.092V26.2832H280.4Z" fill="white"/>
<path d="M302.093 71.5148V47.2965C302.093 46.6683 302.235 45.7259 302.517 44.4694C302.8 43.213 303.365 41.9565 304.214 40.7001C305.062 39.4436 306.287 38.3285 307.889 37.3547C309.491 36.381 311.611 35.8941 314.25 35.8941C315.129 35.8941 316.024 35.9726 316.935 36.1297C317.846 36.2867 318.773 36.4909 319.715 36.7422V25.811C319.024 25.6225 318.349 25.4655 317.689 25.3398C317.029 25.2142 316.354 25.1514 315.663 25.1514C312.648 25.1514 309.978 25.8738 307.653 27.3188C305.329 28.7637 303.538 30.8054 302.282 33.444H302.093V26.2822H290.785V71.5148H302.093Z" fill="white"/>
<path fill-rule="evenodd" clip-rule="evenodd" d="M355.472 70.5724C352.205 71.9545 348.782 72.6456 345.201 72.6456C341.808 72.6456 338.604 72.0802 335.589 70.9494C332.573 69.8186 329.966 68.2166 327.767 66.1434C325.568 64.0703 323.825 61.573 322.537 58.6518C321.249 55.7305 320.605 52.4794 320.605 48.8985C320.605 45.3176 321.249 42.0665 322.537 39.1452C323.825 36.2239 325.568 33.7267 327.767 31.6536C329.966 29.5804 332.573 27.9784 335.589 26.8476C338.604 25.7168 341.808 25.1514 345.201 25.1514C348.342 25.1514 351.216 25.7011 353.823 26.8005C356.43 27.8999 358.661 29.4862 360.514 31.5593C362.367 33.6325 363.812 36.1925 364.849 39.2394C365.885 42.2864 366.403 45.7887 366.403 49.7466V52.8563H331.914C332.291 56.2488 333.61 58.8873 335.871 60.772C338.133 62.6567 340.866 63.5991 344.07 63.5991C346.897 63.5991 349.268 63.018 351.185 61.8557C353.101 60.6935 354.781 59.2329 356.226 57.4738L364.33 63.5991C361.692 66.8659 358.739 69.1903 355.472 70.5724ZM331.913 44.375H355.095C355.032 41.0454 353.996 38.4225 351.985 36.5064C349.975 34.5903 347.179 33.6322 343.598 33.6322C340.206 33.6322 337.52 34.606 335.541 36.5535C333.562 38.501 332.353 41.1082 331.913 44.375Z" fill="white"/>
<path d="M378.403 3.27686H390.61L414.047 57.4745H414.242L437.874 3.27686H449.788V72.4154H441.585V14.4093H441.39L416.586 72.4154H411.605L386.802 14.4093H386.606V72.4154H378.403V3.27686Z" fill="#3A92F7"/>
<path d="M461.812 3.27686H482.32C485.51 3.27686 488.537 3.60237 491.401 4.25339C494.331 4.83931 496.903 5.88094 499.116 7.3783C501.395 8.81054 503.185 10.7636 504.487 13.2375C505.854 15.6463 506.538 18.641 506.538 22.2216C506.538 25.9975 505.822 29.1224 504.389 31.5963C502.957 34.0702 501.102 36.0233 498.823 37.4555C496.61 38.8878 494.168 39.8969 491.499 40.4828C488.83 41.0687 486.291 41.3617 483.882 41.3617H470.015V72.4154H461.812V3.27686ZM470.015 33.7447H483.882C487.984 33.7447 491.304 32.8333 493.843 31.0104C496.447 29.1224 497.749 26.2254 497.749 22.3193C497.749 18.4131 496.447 15.5486 493.843 13.7258C491.304 11.8378 487.984 10.8938 483.882 10.8938H470.015V33.7447Z" fill="#3A92F7"/>
</svg>
